<svg width="5696" height="5695" viewBox="0 0 5696 5695" fill="none" xmlns="http://www.w3.org/2000/svg">
<path d="M5695.69 2843.21C5695.69 3291.4 5592.16 3716.42 5406.89 4093.77C5400.08 4108.76 5391.91 4123.74 5385.1 4138.73C5378.28 4153.71 5370.11 4167.33 5361.94 4182.32C5287.01 4322.63 5201.19 4454.77 5105.83 4580.1C5084.04 4607.35 5063.6 4634.59 5040.44 4661.84C5028.18 4676.82 5015.92 4690.44 5003.66 4705.43C4991.4 4719.05 4979.14 4734.04 4965.52 4747.66C4951.9 4762.64 4938.28 4777.63 4924.65 4792.61C4829.29 4894.78 4725.76 4990.14 4615.42 5077.33C4603.16 5086.86 4590.9 5096.4 4577.28 5107.3C4565.02 5116.83 4551.39 5126.37 4539.13 5135.9C4066.43 5486.01 3480.66 5693.07 2847.21 5693.07C2194.69 5693.07 1593.93 5473.75 1114.41 5104.57C1055.84 5059.62 999.984 5013.3 945.493 4964.26C867.844 4894.78 794.282 4819.86 724.807 4742.21C712.547 4728.59 700.287 4713.6 686.664 4699.98C674.404 4685 662.143 4670.01 649.883 4656.39C614.464 4612.79 579.046 4567.84 544.99 4521.52C453.718 4396.19 371.982 4262.69 301.145 4122.38C294.334 4108.76 287.522 4095.13 280.711 4081.51C273.9 4067.89 267.088 4054.27 261.639 4039.28C94.0812 3676.92 0.0859375 3272.33 0.0859375 2847.3C0.0859375 1275.25 1275.16 0.167969 2847.21 0.167969C4419.25 0.167969 5695.69 1271.16 5695.69 2843.21Z" fill="url(#paint0_linear_34259_114261)"/>
<path d="M724.791 4739.61C712.531 4725.99 700.271 4711 686.648 4697.38C731.603 4458.98 786.093 4217.86 832.41 3983.55C846.033 3915.44 858.293 3848.69 870.553 3781.94C873.278 3765.59 876.003 3747.88 878.727 3731.53C881.452 3715.19 884.176 3698.84 886.9 3682.49C916.87 3495.86 935.941 3316.04 935.941 3149.85C935.941 2139.05 1623.88 1556 2359.5 1359.84C2375.85 1355.75 2393.56 1351.66 2409.9 1347.57C2426.25 1343.49 2443.96 1339.4 2460.31 1336.68C2585.64 1309.43 2710.96 1293.09 2833.57 1287.64H2882.61C3017.47 1293.09 3153.7 1312.16 3288.56 1343.49C3304.91 1347.58 3322.62 1351.66 3338.96 1355.75C3355.31 1359.84 3370.3 1363.92 3386.64 1369.37C4101.83 1573.71 4751.62 2155.4 4751.62 3151.21C4751.62 3253.38 4758.44 3359.64 4772.06 3469.98C4773.42 3486.33 4776.15 3502.67 4777.51 3519.02C4778.87 3535.37 4781.59 3551.72 4784.32 3569.43C4791.13 3622.55 4799.31 3675.68 4808.84 3728.81C4861.97 4043.49 4940.98 4377.25 5003.64 4706.92C4991.38 4720.54 4979.12 4735.52 4965.5 4749.15C4951.88 4764.13 4938.25 4779.11 4924.63 4794.1C4829.27 4896.27 4725.74 4991.63 4615.4 5078.81C4603.14 5088.35 4590.88 5097.88 4577.26 5108.78C4565 5118.32 4551.37 5127.85 4539.11 5137.39C4066.41 5487.49 3480.64 5694.56 2847.19 5694.56C2194.67 5694.56 1593.91 5475.23 1114.4 5106.06C1055.82 5061.1 999.968 5014.79 945.477 4965.75C867.829 4892.18 794.267 4817.26 724.791 4739.61Z" fill="#F4D93B"/>
<path d="M771.064 4784.34C989.026 3803.52 987.663 3863.45 1023.08 3533.79C1058.5 3204.12 1057.14 2277.78 1629.29 1882.73C2201.44 1487.67 2390.79 1464.51 2390.79 1464.51L2409.86 1344.63L1854.06 1562.59L1479.44 1837.77L1302.34 2018.95L1111.63 2318.65L1031.26 2557.05L971.316 2766.83L920.913 3039.29L927.724 3360.78L935.897 3667.29L769.702 4295.29L726.11 4507.8L722.023 4667.19L771.064 4784.34Z" fill="white"/>
<path d="M5034.99 4663.15C5022.73 4676.78 5006.38 4689.04 4994.12 4702.66C4980.5 4716.28 4953.25 4727.18 4939.63 4742.17C4844.27 4838.89 4791.15 4892.02 4680.8 4975.11C4668.54 4984.65 4665.82 5030.97 4653.56 5040.5C4641.3 5050.04 4599.07 5096.35 4585.44 5105.89C4348.41 5273.45 4062.34 5413.76 3755.83 5510.48C4736.65 4671.33 4462.84 1884.14 3040.64 1487.72L3269.5 1325.61C3279.04 1328.34 3289.94 1331.06 3299.47 1332.42C3315.82 1336.51 3330.81 1340.6 3347.15 1344.68C4062.34 1539.49 4712.14 2093.93 4712.14 3042.06C4712.14 3138.78 4718.95 3240.95 4732.57 3344.49C4733.93 3360.83 4736.65 3375.82 4738.02 3392.16C4739.38 3408.51 4742.1 3423.5 4744.83 3439.84C4751.64 3490.25 4759.81 3540.65 4769.35 3592.42C4821.11 3890.75 4972.33 4349.83 5034.99 4663.15Z" fill="#F2B53D"/>
<path d="M4965.48 4293.92C4923.25 4095.03 4883.75 3901.59 4852.42 3716.32C4845.6 3679.54 4840.16 3644.12 4836.07 3607.34C4831.98 3584.18 4829.26 3561.02 4826.53 3537.86C4823.81 3514.7 4821.08 3492.91 4818.36 3469.75C4806.1 3358.04 4797.93 3251.79 4797.93 3148.26C4797.93 2573.38 4584.05 2085.69 4178.1 1735.59C3964.22 1551.68 3701.31 1411.37 3416.6 1328.27C3401.61 1324.19 3386.63 1320.1 3371.64 1316.01C3355.3 1311.93 3340.31 1307.84 3325.33 1303.75C3182.29 1268.33 3035.16 1246.54 2886.68 1239.73H2883.95H2834.91H2833.55C2715.03 1245.18 2596.52 1258.8 2479.36 1283.32C2461.65 1287.41 2445.31 1290.13 2427.6 1294.22C2409.89 1298.3 2393.54 1302.39 2375.83 1306.48C2059.79 1386.85 1764.18 1533.97 1527.15 1734.23C1111.66 2084.33 892.335 2573.38 892.335 3146.89C892.335 3318.54 871.9 3502.44 840.568 3695.88C837.844 3712.23 835.119 3729.94 832.395 3746.29C829.67 3762.64 826.946 3780.34 822.859 3798.05C811.961 3856.63 801.063 3915.21 790.165 3975.15C769.731 4078.68 747.935 4184.94 724.776 4292.56C700.256 4411.07 674.373 4530.95 651.215 4650.83C663.475 4665.81 675.736 4680.8 687.996 4694.42C700.256 4709.41 712.516 4723.03 726.139 4736.65C752.022 4594.98 781.991 4451.94 811.961 4310.26C835.119 4201.28 856.916 4093.67 878.712 3988.77C893.697 3912.48 907.319 3837.56 920.942 3764C923.666 3747.65 926.39 3731.3 929.115 3714.96C931.839 3698.61 934.564 3682.26 937.289 3665.92C965.896 3484.73 983.605 3310.37 983.605 3146.89C983.605 2208.3 1612.97 1610.26 2348.59 1405.92C2364.93 1401.84 2381.28 1396.39 2397.63 1392.3C2413.98 1388.21 2430.32 1384.13 2446.67 1380.04C2574.72 1351.43 2705.5 1333.72 2836.27 1328.27H2883.95C3005.19 1333.72 3129.16 1348.71 3250.4 1375.95C3268.11 1380.04 3287.18 1384.13 3304.89 1388.21C3321.24 1392.3 3338.95 1396.39 3356.66 1401.83C4071.84 1595.28 4709.38 2166.06 4709.38 3148.26C4709.38 3259.96 4717.55 3375.75 4732.54 3494.27C4733.9 3510.62 4736.62 3526.96 4737.99 3544.67C4740.71 3561.02 4742.07 3577.37 4744.8 3593.71C4751.61 3640.03 4758.42 3687.71 4766.59 3735.39C4797.93 3920.66 4837.43 4112.74 4879.66 4311.63C4909.63 4456.03 4940.96 4601.79 4966.85 4746.19C4979.11 4732.57 4992.73 4717.58 5004.99 4703.96C5017.25 4688.97 5029.51 4675.35 5041.77 4660.37C5017.25 4537.76 4991.37 4415.16 4965.48 4293.92ZM870.538 3781.71C858.278 3848.46 846.017 3915.21 832.395 3983.32C786.078 4217.63 731.588 4458.75 686.633 4697.15C698.894 4712.13 711.154 4725.75 724.776 4739.38C750.659 4597.7 780.629 4454.67 810.599 4312.99C833.757 4204.01 855.553 4096.39 877.349 3991.5C892.334 3915.21 905.957 3840.29 919.58 3766.72C903.233 3770.81 886.885 3774.9 870.538 3781.71ZM2883.95 1284.68H2834.91C2712.31 1290.13 2586.98 1306.48 2461.65 1333.72C2456.21 1348.71 2450.76 1365.05 2446.67 1382.76C2574.72 1354.16 2705.5 1336.45 2836.27 1331H2883.95C3005.19 1336.45 3129.16 1351.43 3250.4 1378.68C3265.39 1366.42 3279.01 1355.52 3291.27 1343.26C3155.04 1309.2 3017.46 1290.13 2883.95 1284.68Z" fill="#232323"/>
<path d="M3438.39 1155.33C3438.39 1158.06 3438.39 1160.78 3437.03 1163.51C3416.6 1344.69 3160.49 1584.45 2769.52 1550.39L2369.02 1517.69C2377.19 1471.38 2386.73 1427.79 2397.63 1386.92C2514.78 952.356 2774.97 862.446 2836.27 1136.26C2839 1148.52 2841.72 1162.14 2843.08 1175.77C2843.08 1175.77 2845.81 1168.96 2852.62 1156.7C2885.31 1100.84 3005.19 936.009 3247.68 970.066C3258.57 971.428 3269.47 972.791 3281.73 975.515C3287.18 976.877 3291.27 976.877 3296.72 978.239C3378.45 997.311 3422.04 1044.99 3432.94 1106.29C3438.39 1122.64 3438.39 1138.99 3438.39 1155.33Z" fill="#F4D93B"/>
<path d="M2837.68 1136.18L2800.9 1092.59C2800.9 1092.59 2514.83 1078.96 2430.37 1442.69L2397.68 1386.83C2514.83 952.272 2775.02 862.362 2837.68 1136.18Z" fill="white"/>
<path d="M3438.42 1166.19C3438.42 1166.19 3438.43 1164.82 3437.06 1163.46C3422.08 1141.66 3280.4 957.76 2885.35 1194.79L2855.38 1158.01C2888.07 1102.16 3007.95 937.326 3250.43 971.382L3284.49 976.831L3430.25 1002.71L3435.7 1108.97L3438.42 1155.29V1166.19Z" fill="white"/>
<path d="M2845.84 1598.02C2819.95 1598.02 2794.07 1596.66 2766.83 1593.94C2742.31 1591.21 2724.6 1570.78 2725.96 1544.9C2728.68 1520.37 2749.12 1502.67 2775 1504.03C3131.91 1535.36 3367.58 1322.85 3393.46 1164.83C3401.64 1113.06 3390.74 1044.95 3291.3 1021.79C3003.86 953.675 2892.15 1182.53 2888.07 1192.07C2879.89 1209.78 2860.82 1220.68 2840.39 1217.95C2821.32 1215.23 2804.97 1200.24 2802.24 1179.81C2788.62 1083.09 2750.48 1024.51 2702.8 1023.15C2619.7 1021.79 2476.67 1175.72 2415.36 1523.1C2411.28 1547.62 2388.12 1563.97 2363.6 1559.88C2339.08 1555.79 2322.73 1532.64 2326.82 1508.11C2396.29 1110.33 2570.66 931.878 2702.8 934.603C2775 935.965 2830.85 985.006 2864.91 1068.1C2937.11 985.006 3080.15 880.112 3310.37 934.603C3435.69 964.573 3499.72 1058.57 3480.65 1178.45C3449.32 1365.08 3215.01 1598.02 2845.84 1598.02Z" fill="#232323"/>
<path d="M2002.54 3132.08C2084.55 3132.08 2151.03 3065.6 2151.03 2983.59C2151.03 2901.58 2084.55 2835.1 2002.54 2835.1C1920.53 2835.1 1854.05 2901.58 1854.05 2983.59C1854.05 3065.6 1920.53 3132.08 2002.54 3132.08Z" fill="#232323"/>
<path d="M3695.91 3132.08C3777.91 3132.08 3844.39 3065.6 3844.39 2983.59C3844.39 2901.59 3777.91 2835.11 3695.91 2835.11C3613.9 2835.11 3547.42 2901.59 3547.42 2983.59C3547.42 3065.6 3613.9 3132.08 3695.91 3132.08Z" fill="#232323"/>
<path d="M4744.78 2768.32H4524.1C4498.21 2768.32 4476.42 2746.53 4476.42 2720.64V2558.53C4476.42 2358.28 4314.31 2196.17 4114.06 2196.17H3461.53C3261.28 2196.17 3099.17 2358.28 3099.17 2558.53V2659.34C3099.17 2708.38 3059.67 2747.89 3010.63 2747.89H2670.06C2621.02 2747.89 2581.52 2708.38 2581.52 2659.34V2558.53C2581.52 2358.28 2419.41 2196.17 2219.16 2196.17H1566.64C1366.38 2196.17 1204.27 2358.28 1204.27 2558.53V2720.64C1204.27 2746.53 1182.48 2768.32 1156.6 2768.32H922.287C850.088 2768.32 786.062 2822.81 781.975 2895.01C776.526 2974.02 839.19 3040.77 918.201 3040.77H1156.6C1182.48 3040.77 1204.27 3062.57 1204.27 3088.45V3211.06C1204.27 3411.31 1366.38 3573.42 1566.64 3573.42H2219.16C2419.41 3573.42 2581.52 3411.31 2581.52 3211.06V3021.7H3099.17V3211.06C3099.17 3411.31 3261.28 3573.42 3461.53 3573.42H4114.06C4314.31 3573.42 4476.42 3411.31 4476.42 3211.06V3088.45C4476.42 3062.57 4498.21 3040.77 4524.1 3040.77H4748.87C4826.52 3040.77 4890.54 2975.39 4885.09 2895.01C4879.64 2822.81 4816.98 2768.32 4744.78 2768.32ZM2220.52 3299.6H1568C1518.96 3299.6 1478.09 3258.74 1478.09 3209.7V2557.17C1478.09 2508.13 1518.96 2467.26 1568 2467.26H2220.52C2269.56 2467.26 2310.43 2508.13 2310.43 2557.17V2866.4C2310.43 2871.85 2309.07 2877.3 2309.07 2882.75C2309.07 2888.2 2309.07 2893.65 2310.43 2899.1V3208.33C2310.43 3258.74 2269.56 3299.6 2220.52 3299.6ZM4203.96 3209.7C4203.96 3258.74 4163.1 3299.6 4114.06 3299.6H3461.53C3412.49 3299.6 3371.63 3258.74 3371.63 3209.7V2557.17C3371.63 2508.13 3412.49 2467.26 3461.53 2467.26H4114.06C4163.1 2467.26 4203.96 2508.13 4203.96 2557.17V3209.7Z" fill="#232323"/>
<path d="M2419.44 2563.92V3204.19C2419.44 3294.1 2345.88 3367.66 2255.97 3367.66H1547.59C1457.68 3367.66 1384.12 3294.1 1384.12 3204.19V2563.92C1384.12 2474.02 1457.68 2400.45 1547.59 2400.45H2255.97C2345.88 2400.45 2419.44 2474.02 2419.44 2563.92Z" fill="white"/>
<path d="M4313 2563.92V3204.19C4313 3281.84 4257.14 3348.59 4183.58 3363.57C4172.68 3366.3 4160.42 3367.66 4149.52 3367.66H3441.15C3351.24 3367.66 3277.68 3294.1 3277.68 3204.19V2563.92C3277.68 2474.02 3351.24 2400.45 3441.15 2400.45H4149.52C4239.43 2400.45 4313 2474.02 4313 2563.92Z" fill="white"/>
<path d="M2419.43 2935.82V3204.19C2419.43 3294.1 2345.87 3367.66 2255.96 3367.66H2027.1L1570.75 2400.45H2155.15L2419.43 2935.82Z" fill="#C5FCFF"/>
<path d="M4312.96 2563.92V3204.19C4312.96 3281.84 4257.1 3348.59 4183.54 3363.57L3755.79 2400.45H4148.12C4239.39 2400.45 4312.96 2474.02 4312.96 2563.92Z" fill="#C5FCFF"/>
<path d="M2435.75 3110.52C2779.04 2917.08 2947.95 2910.27 3281.71 3145.94C3359.36 3200.43 3332.11 3279.44 3261.27 3305.33C3092.35 3366.63 2622.38 3355.73 2438.47 3284.89C2354.01 3252.2 2341.75 3162.29 2435.75 3110.52Z" fill="#FF814A"/>
<path d="M3307.59 3107.79C2968.39 2869.4 2784.48 2861.22 2413.95 3069.65C2354.01 3103.7 2322.68 3154.11 2326.77 3208.6C2330.85 3260.37 2366.27 3302.6 2423.49 3324.39C2531.1 3365.26 2727.27 3387.06 2911.17 3387.06C3058.3 3387.06 3197.25 3373.43 3277.62 3343.46C3330.75 3324.39 3367.53 3282.16 3372.98 3234.48C3378.43 3189.53 3355.27 3141.85 3307.59 3107.79ZM2453.45 3242.66C2430.3 3234.48 2415.31 3219.5 2413.95 3203.15C2412.59 3185.44 2428.93 3165.01 2456.18 3148.66C2796.74 2957.94 2945.23 2963.39 3254.46 3181.35C3265.36 3189.53 3284.43 3205.87 3281.71 3224.95C3280.34 3239.93 3265.36 3254.91 3243.56 3261.73C3085.54 3320.3 2626.46 3308.04 2453.45 3242.66Z" fill="#232323"/>
<defs>
<linearGradient id="paint0_linear_34259_114261" x1="2847.89" y1="0.167969" x2="2847.89" y2="5693.07" gradientUnits="userSpaceOnUse">
<stop stop-color="#71E256"/>
<stop offset="1" stop-color="#3BD117"/>
</linearGradient>
</defs>
</svg>
