<svg width="5697" height="5701" viewBox="0 0 5697 5701" fill="none" xmlns="http://www.w3.org/2000/svg">
<path d="M5696.14 2843.56C5696.14 3291.75 5592.61 3716.78 5407.35 4094.12C5400.53 4109.11 5392.36 4124.09 5385.55 4139.08C5378.74 4154.06 5370.56 4167.69 5362.39 4182.67C5287.47 4322.98 5201.64 4455.12 5106.29 4580.45C5084.49 4607.7 5064.06 4634.94 5040.9 4662.19C5028.64 4677.17 5016.38 4690.79 5004.12 4705.78C4991.86 4719.4 4979.6 4734.39 4965.97 4748.01C4952.35 4763 4938.73 4777.98 4925.11 4792.96C4829.75 4895.13 4726.22 4990.49 4615.87 5077.68C4603.61 5087.21 4591.35 5096.75 4577.73 5107.65C4565.47 5117.18 4551.85 5126.72 4539.59 5136.26C4066.88 5486.36 3481.11 5693.42 2847.66 5693.42C2195.14 5693.42 1594.38 5474.1 1114.87 5104.92C1056.29 5059.97 1000.44 5013.65 945.947 4964.61C868.299 4895.13 794.736 4820.21 725.26 4742.56C713 4728.94 700.741 4713.95 687.118 4700.33C674.858 4685.35 662.596 4670.36 650.336 4656.74C614.917 4613.15 579.499 4568.19 545.443 4521.87C454.171 4396.55 372.435 4263.04 301.598 4122.73C294.787 4109.11 287.975 4095.49 281.164 4081.86C274.353 4068.24 267.541 4054.62 262.092 4039.63C94.5343 3677.27 0.539062 3272.68 0.539062 2847.65C0.539062 1275.6 1275.61 0.519531 2847.66 0.519531C4419.71 0.519531 5696.14 1271.51 5696.14 2843.56Z" fill="url(#paint0_linear_34259_114295)"/>
<path d="M5076.36 4621.28C5064.1 4636.26 5047.75 4648.52 5035.49 4662.14C5021.87 4677.13 4994.62 4688.03 4981 4703.01C4885.64 4805.18 4832.51 4861.03 4722.17 4948.22C4709.91 4957.76 4707.18 5006.8 4694.92 5016.33C4682.66 5025.87 4640.43 5074.91 4626.81 5084.45C4389.78 5260.18 4091 5437.09 3784.5 5539.26C3480.71 5641.43 3170.09 5700.06 2855.41 5700.06C2202.89 5700.06 1537.21 5440 1057.7 5070.82C999.12 5025.87 935.094 4942.77 880.604 4893.73C802.955 4824.25 732.118 4739.79 662.643 4662.14C650.383 4648.52 700.787 4479.6 687.164 4465.98C732.119 4227.58 786.608 3986.46 832.925 3752.15C846.548 3684.04 858.809 3617.29 871.069 3550.54C873.793 3534.19 876.518 3516.48 879.242 3500.13C881.967 3483.79 884.691 3467.44 887.415 3451.09C917.385 3264.46 936.456 3084.65 936.456 2918.45C936.456 1907.65 1624.4 1324.6 2360.02 1128.44C2376.36 1124.35 2394.07 1120.26 2410.42 1116.18C2426.77 1112.09 2444.48 1108 2460.82 1105.28C2586.15 1078.03 2711.48 1061.69 2834.08 1056.24H2883.12C3017.99 1061.69 3154.21 1080.76 3289.08 1112.09C3295.89 1113.45 3302.7 1114.82 3309.51 1117.54C3319.05 1120.26 3329.94 1122.99 3339.48 1125.71C3355.83 1129.8 3370.81 1133.89 3387.16 1139.34C4102.34 1343.68 4752.14 1925.36 4752.14 2921.17C4752.14 3023.34 4758.95 3129.6 4772.57 3239.94C4773.93 3256.29 4776.66 3272.64 4778.02 3288.98C4779.38 3305.33 4782.11 3321.68 4784.83 3339.39C4791.64 3392.52 4799.82 3445.64 4809.35 3498.77C4862.48 3809.37 5013.69 4292.97 5076.36 4621.28Z" fill="#F4D93B"/>
<path d="M5076.31 4621.29C5064.05 4636.27 5047.71 4648.53 5035.45 4662.16C5021.82 4677.14 4995.16 4720.26 4981.54 4735.25C4886.18 4837.42 4859.61 4880.33 4749.27 4967.52C4737.01 4977.06 4707.14 5006.81 4694.88 5016.34C4682.62 5025.88 4640.39 5074.92 4626.77 5084.46C4389.74 5260.19 4090.96 5437.1 3784.45 5539.27C4765.28 4657.88 4504.17 1700.6 3081.97 1285.11L3310.83 1114.82C3320.36 1117.55 3331.26 1120.27 3340.8 1123C3357.14 1127.08 3372.13 1131.17 3388.48 1136.62C4103.66 1340.96 4753.46 1922.65 4753.46 2918.46C4753.46 3020.63 4760.27 3126.89 4773.89 3237.23C4775.26 3253.58 4777.98 3269.92 4779.34 3286.27C4780.7 3302.62 4783.43 3318.96 4786.15 3336.67C4792.96 3389.8 4801.14 3442.93 4810.67 3496.06C4862.44 3809.38 5013.65 4292.98 5076.31 4621.29Z" fill="#F2B53D"/>
<path d="M4965.98 4062.79C4923.75 3863.9 4884.24 3670.46 4852.91 3485.2C4846.1 3448.41 4840.65 3413 4836.56 3376.21C4832.47 3353.06 4829.75 3329.9 4827.02 3306.74C4824.3 3283.58 4821.58 3261.78 4818.85 3238.63C4806.59 3126.92 4798.42 3020.66 4798.42 2917.13C4798.42 2342.26 4584.54 1854.57 4178.59 1504.47C3964.72 1320.56 3701.8 1180.25 3417.09 1097.15C3402.1 1093.06 3387.12 1088.98 3372.14 1084.89C3355.79 1080.8 3340.8 1076.72 3325.82 1072.63C3182.78 1037.21 3035.66 1015.41 2887.17 1008.6H2884.45H2835.41H2834.04C2715.53 1014.05 2597.01 1027.67 2479.86 1052.2C2462.15 1056.28 2445.8 1059.01 2428.09 1063.09C2410.38 1067.18 2394.03 1071.27 2376.33 1075.35C2060.28 1155.73 1764.67 1302.85 1527.64 1503.1C1112.15 1853.21 892.827 2342.26 892.827 2915.77C892.827 3087.42 872.392 3271.32 841.06 3464.76C838.336 3481.11 835.611 3498.82 832.887 3515.17C830.162 3531.51 827.439 3549.22 823.352 3566.93C812.454 3625.51 801.555 3684.09 790.657 3744.03C770.223 3847.56 748.427 3953.81 725.268 4061.43C700.748 4179.95 647.619 4463.3 624.461 4583.18C636.721 4598.16 648.983 4613.15 661.243 4626.77C673.503 4641.76 685.763 4655.38 699.385 4669C725.268 4527.33 782.483 4220.82 812.453 4079.14C835.611 3970.16 857.408 3862.54 879.204 3757.65C894.189 3681.36 907.811 3606.44 921.434 3532.87C924.158 3516.53 926.882 3500.18 929.607 3483.83C932.331 3467.49 935.056 3451.14 937.78 3434.79C966.388 3253.61 984.097 3079.24 984.097 2915.77C984.097 1977.17 1613.46 1379.14 2349.08 1174.8C2365.43 1170.71 2381.77 1165.26 2398.12 1161.18C2414.47 1157.09 2430.81 1153 2447.16 1148.92C2575.21 1120.31 2705.99 1102.6 2836.77 1097.15H2884.45C3005.69 1102.6 3129.65 1117.58 3250.89 1144.83C3268.6 1148.92 3287.67 1153 3305.38 1157.09C3321.73 1161.18 3339.44 1165.26 3357.15 1170.71C4072.34 1364.15 4709.87 1934.94 4709.87 2917.13C4709.87 3028.84 4718.05 3144.63 4733.03 3263.15C4734.39 3279.49 4737.12 3295.84 4738.48 3313.55C4741.2 3329.9 4742.56 3346.24 4745.29 3362.59C4752.1 3408.91 4758.91 3456.59 4767.09 3504.27C4798.42 3689.53 4837.92 3881.61 4880.15 4080.5C4910.12 4224.9 4995.95 4520.51 5021.83 4664.91C5034.09 4651.29 5047.71 4636.31 5059.97 4622.68C5072.23 4607.7 5084.49 4594.08 5096.75 4579.09C5072.23 4456.49 4991.86 4184.04 4965.98 4062.79ZM871.031 3550.58C858.771 3617.34 846.51 3684.09 832.887 3752.2C786.57 3986.51 732.081 4227.63 687.126 4466.02C699.386 4481.01 711.646 4494.63 725.268 4508.25C751.151 4366.58 781.122 4223.54 811.091 4081.87C834.25 3972.89 856.046 3865.27 877.842 3760.37C892.827 3684.09 906.449 3609.16 920.072 3535.6C903.725 3539.69 887.378 3543.77 871.031 3550.58ZM2884.45 1053.56H2835.41C2712.8 1059.01 2587.47 1075.35 2462.15 1102.6C2456.7 1117.58 2451.25 1133.93 2447.16 1151.64C2575.21 1123.03 2705.99 1105.32 2836.77 1099.87H2884.45C3005.69 1105.32 3129.65 1120.31 3250.89 1147.55C3265.88 1135.29 3279.5 1124.4 3291.76 1112.14C3155.54 1078.08 3017.95 1059.01 2884.45 1053.56Z" fill="#232323"/>
<path d="M2003.08 2900.37C2085.09 2900.37 2151.57 2833.89 2151.57 2751.88C2151.57 2669.87 2085.09 2603.39 2003.08 2603.39C1921.07 2603.39 1854.59 2669.87 1854.59 2751.88C1854.59 2833.89 1921.07 2900.37 2003.08 2900.37Z" fill="#232323"/>
<path d="M3696.33 2900.37C3778.34 2900.37 3844.82 2833.89 3844.82 2751.88C3844.82 2669.88 3778.34 2603.4 3696.33 2603.4C3614.33 2603.4 3547.85 2669.88 3547.85 2751.88C3547.85 2833.89 3614.33 2900.37 3696.33 2900.37Z" fill="#232323"/>
<path d="M2436.2 2878.88C2779.49 2685.44 2948.41 2678.63 3282.16 2914.3C3359.81 2968.79 3332.57 3047.8 3261.73 3073.69C3092.81 3134.99 2622.83 3124.09 2438.92 3053.25C2354.46 3020.56 2342.2 2930.65 2436.2 2878.88Z" fill="#FF814A"/>
<path d="M3308.07 2876.09C2968.87 2637.7 2784.96 2629.52 2414.43 2837.95C2354.49 2872 2323.16 2922.41 2327.25 2976.9C2331.33 3028.67 2366.75 3070.9 2423.97 3092.69C2531.59 3133.56 2727.75 3155.36 2911.65 3155.36C3058.78 3155.36 3197.73 3141.73 3278.1 3111.76C3331.23 3092.69 3368.01 3050.46 3373.46 3002.78C3378.91 2957.83 3355.75 2910.15 3308.07 2876.09ZM2453.94 3010.96C2430.78 3002.78 2415.79 2987.8 2414.43 2971.45C2413.07 2953.74 2429.41 2933.31 2456.66 2916.96C2797.22 2726.24 2945.71 2731.69 3254.94 2949.65C3265.84 2957.83 3284.91 2974.17 3282.19 2993.25C3280.83 3008.23 3265.84 3023.22 3244.05 3030.03C3086.02 3088.6 2626.94 3076.35 2453.94 3010.96Z" fill="#232323"/>
<path d="M424.164 2983.69C403.73 2741.2 441.874 2463.3 530.42 2201.75C631.227 1906.14 794.698 1632.32 1003.12 1408.91C1313.72 1077.88 1884.5 685.549 2842.17 701.897L2838.08 960.726C2154.23 948.466 1586.17 1165.06 1192.48 1586C767.453 2041 651.661 2611.79 681.631 2963.25L424.164 2983.69Z" fill="#232323"/>
<path d="M5211.22 2983.73L4953.75 2961.93C4983.72 2610.47 4867.93 2039.68 4442.91 1584.69C4049.22 1163.75 3481.15 948.51 2797.3 959.408L2793.21 700.578C3750.88 684.231 4321.67 1075.2 4632.26 1407.59C4842.05 1631 5005.52 1906.18 5104.97 2200.43C5194.87 2463.35 5231.66 2741.25 5211.22 2983.73Z" fill="#232323"/>
<path d="M1232.07 2403.49L988.227 3684.02C952.809 3869.28 740.296 3959.19 583.636 3855.66L575.463 3850.21C540.044 3827.05 507.35 3798.45 480.105 3767.12C382.022 3658.13 337.068 3506.92 362.951 3358.44L511.437 2494.76C549.581 2278.16 726.674 2111.97 945.998 2091.53C1011.39 2086.08 1071.32 2102.43 1120.37 2136.49C1204.83 2192.34 1253.87 2294.51 1232.07 2403.49Z" fill="#1DA9FF"/>
<path d="M1056.3 2104.89L696.664 3885.37C696.664 3885.37 790.659 3926.24 849.236 3898.99C907.813 3871.75 1030.42 3640.16 1030.42 3640.16L1133.95 2952.22L1271.54 2275.18L1147.57 2144.4L1056.3 2104.89Z" fill="#297991"/>
<path d="M1121.73 2136.43C1114.92 2136.43 1108.11 2136.43 1099.93 2135.06C896.955 2114.63 689.893 2223.61 594.535 2752.17C499.177 3280.73 431.063 3585.87 507.35 3731.64L480.105 3768.42C382.022 3659.44 337.068 3508.23 362.951 3359.74L511.437 2496.06C549.58 2279.46 726.674 2113.27 945.998 2092.83C1012.75 2086.02 1072.69 2102.37 1121.73 2136.43Z" fill="white"/>
<path d="M729.316 3944.3C669.376 3944.3 610.799 3926.59 559.034 3893.9L550.86 3888.45C373.767 3771.29 282.494 3561.51 317.913 3351.72L467.761 2488.04C508.629 2252.37 703.432 2071.19 943.189 2048.03C1041.27 2038.5 1135.27 2075.28 1200.66 2147.48C1267.41 2219.68 1294.65 2316.4 1275.58 2413.12L1031.74 3693.65C1012.66 3795.81 944.551 3880.27 849.193 3919.78C811.05 3936.13 770.184 3944.3 729.316 3944.3ZM951.363 2136.58C752.473 2155.65 590.365 2306.86 556.308 2503.03L406.46 3366.7C376.49 3541.07 452.778 3716.8 599.901 3813.52L608.075 3818.97C670.738 3859.84 745.662 3866.65 813.775 3838.04C881.888 3809.44 929.567 3750.86 943.189 3677.3L1187.03 2396.77C1200.66 2328.66 1180.22 2259.18 1133.91 2207.42C1087.59 2155.65 1020.84 2129.77 951.363 2136.58Z" fill="#232323"/>
<path d="M4688.08 2091.52C4512.35 2075.17 4370.67 2230.47 4403.37 2403.47L4647.21 3684C4682.63 3869.27 4895.14 3959.18 5051.8 3855.65L5059.98 3850.2C5222.09 3743.94 5306.55 3550.5 5272.49 3358.42L5122.64 2494.75C5085.86 2278.15 4907.4 2113.31 4688.08 2091.52Z" fill="#1DA9FF"/>
<path d="M4626.79 2087.6L4963.26 3885.78C4963.26 3885.78 4869.27 3926.65 4810.69 3899.41C4752.11 3872.16 4629.51 3640.58 4629.51 3640.58L4525.98 2952.63L4388.39 2275.59L4512.36 2144.81L4626.79 2087.6Z" fill="#297991"/>
<path d="M4907.42 3944.3C4866.55 3944.3 4825.68 3936.12 4786.18 3919.78C4690.82 3878.91 4622.71 3794.45 4603.63 3693.64L4359.79 2413.11C4342.08 2316.39 4369.33 2219.67 4434.71 2147.47C4501.46 2075.27 4595.46 2038.49 4692.18 2048.03C4930.58 2071.19 5126.74 2252.37 5167.61 2488.04L5317.46 3351.71C5354.24 3561.5 5262.97 3771.29 5084.51 3888.44L5076.34 3893.89C5025.93 3926.59 4965.99 3944.3 4907.42 3944.3ZM4663.57 2135.21C4602.27 2135.21 4543.69 2161.1 4501.46 2207.41C4455.15 2259.18 4434.71 2327.29 4448.34 2396.77L4692.18 3677.29C4705.8 3750.86 4753.48 3809.43 4821.6 3838.04C4889.71 3866.65 4965.99 3859.84 5027.3 3818.97L5035.47 3813.52C5182.59 3716.8 5258.88 3541.07 5228.91 3366.7L5079.06 2503.02C5045 2306.86 4882.9 2155.65 4684.01 2136.57C4677.19 2135.21 4670.38 2135.21 4663.57 2135.21Z" fill="#232323"/>
<path d="M1057.55 2106.64L682.594 3895.86L695.926 3898.65L1070.88 2109.43L1057.55 2106.64Z" fill="#232323"/>
<path d="M4641.42 2107.67L4628 2110.03L4943.06 3898.33L4956.47 3895.96L4641.42 2107.67Z" fill="#232323"/>
<path d="M371.049 3312.24C226.65 3204.62 198.043 3041.15 238.911 2850.44C279.779 2659.72 322.009 2428.13 553.592 2441.76C580.837 2509.87 371.049 3312.24 371.049 3312.24Z" fill="#232323"/>
<path d="M5297.03 3312.24C5441.43 3204.62 5470.04 3041.15 5429.17 2850.43C5388.31 2659.72 5346.08 2428.13 5114.49 2441.75C5087.25 2509.87 5297.03 3312.24 5297.03 3312.24Z" fill="#232323"/>
<path d="M5008.23 3395.1C5045.85 3395.1 5076.35 3364.6 5076.35 3326.98C5076.35 3289.37 5045.85 3258.87 5008.23 3258.87C4970.62 3258.87 4940.12 3289.37 4940.12 3326.98C4940.12 3364.6 4970.62 3395.1 5008.23 3395.1Z" fill="#61CAFF"/>
<path d="M5049.06 3599.41C5086.68 3599.41 5117.18 3568.92 5117.18 3531.3C5117.18 3493.68 5086.68 3463.18 5049.06 3463.18C5011.44 3463.18 4980.95 3493.68 4980.95 3531.3C4980.95 3568.92 5011.44 3599.41 5049.06 3599.41Z" fill="#61CAFF"/>
<path d="M3438.83 909.946C3438.83 912.671 3438.83 915.395 3437.47 918.12C3417.03 1099.3 3160.93 1339.06 2769.96 1305L2369.46 1272.31C2377.63 1225.99 2387.17 1182.4 2398.06 1141.53C2515.22 706.969 2775.41 617.06 2836.71 890.874C2839.43 903.135 2842.16 916.758 2843.52 930.38C2843.52 930.38 2846.25 923.569 2853.06 911.308C2885.75 855.456 3005.63 690.622 3248.11 724.679C3259.01 726.041 3269.91 727.404 3282.17 730.128C3287.62 731.491 3291.7 731.49 3297.15 732.852C3378.89 751.924 3422.48 799.603 3433.38 860.905C3438.83 877.252 3438.83 893.599 3438.83 909.946Z" fill="#F4D93B"/>
<path d="M2838.07 890.958L2801.29 847.366C2801.29 847.366 2515.21 833.743 2430.75 1197.47L2398.06 1141.61C2515.21 707.053 2775.4 617.143 2838.07 890.958Z" fill="white"/>
<path d="M3438.86 920.667C3438.86 920.667 3438.86 919.303 3437.5 917.941C3422.51 896.145 3280.84 712.24 2885.79 949.274L2855.82 912.493C2888.51 856.641 3008.39 691.806 3250.87 725.863L3284.93 731.312L3430.69 757.195L3436.14 863.451L3438.86 909.768V920.667Z" fill="white"/>
<path d="M2846.21 1352.6C2820.33 1352.6 2794.45 1351.24 2767.2 1348.52C2742.68 1345.79 2724.97 1325.36 2726.33 1299.47C2729.06 1274.95 2749.49 1257.24 2775.38 1258.61C3132.29 1289.94 3367.96 1077.43 3393.84 919.404C3402.01 867.638 3391.12 799.525 3291.67 776.366C3004.24 708.253 2892.53 937.113 2888.44 946.649C2880.27 964.358 2861.2 975.255 2840.76 972.531C2821.69 969.806 2805.35 954.822 2802.62 934.388C2789 837.668 2750.86 779.09 2703.18 777.728C2620.08 776.366 2477.04 930.301 2415.74 1277.68C2411.65 1302.2 2388.49 1318.55 2363.97 1314.46C2339.45 1310.37 2323.11 1287.21 2327.19 1262.69C2396.67 864.912 2571.04 686.456 2703.18 689.181C2775.38 690.543 2831.23 739.584 2865.28 822.682C2937.48 739.584 3080.52 634.691 3310.74 689.181C3436.07 719.151 3500.1 813.147 3481.03 933.026C3449.69 1119.66 3215.39 1352.6 2846.21 1352.6Z" fill="#232323"/>
<defs>
<linearGradient id="paint0_linear_34259_114295" x1="2848.34" y1="0.519531" x2="2848.34" y2="5693.42" gradientUnits="userSpaceOnUse">
<stop stop-color="#71E256"/>
<stop offset="1" stop-color="#3BD117"/>
</linearGradient>
</defs>
</svg>
