<svg width="5698" height="5694" viewBox="0 0 5698 5694" fill="none" xmlns="http://www.w3.org/2000/svg">
<path d="M5697.82 2844.03C5697.82 3292.22 5594.29 3717.25 5409.02 4094.59C5402.21 4109.58 5394.04 4124.56 5387.22 4139.55C5380.41 4154.53 5372.24 4168.15 5364.07 4183.14C5289.14 4323.45 5203.32 4455.59 5107.96 4580.92C5087.53 4608.17 5065.73 4635.41 5042.57 4662.66C5030.31 4677.64 5018.05 4691.26 5005.79 4706.25C5004.43 4707.61 5003.07 4710.33 5000.34 4711.7C4989.45 4723.96 4978.55 4736.22 4967.65 4748.48C4966.29 4749.84 4964.93 4751.2 4963.56 4753.93C4951.3 4767.55 4939.04 4779.81 4926.78 4793.43C4926.78 4793.43 4926.78 4794.79 4925.42 4794.79C4830.06 4896.96 4726.53 4990.96 4617.55 5078.15C4605.29 5087.68 4593.03 5097.22 4579.4 5108.12C4567.14 5117.65 4553.52 5127.19 4541.26 5136.73C4068.56 5486.83 3482.79 5693.89 2849.33 5693.89C2196.81 5693.89 1596.06 5474.57 1116.54 5105.39C1057.96 5060.44 1002.11 5014.12 947.622 4965.08C884.958 4909.23 825.019 4850.65 767.804 4789.35C755.544 4775.72 743.281 4762.1 731.021 4748.48C729.658 4747.12 728.299 4745.75 726.937 4743.03C716.039 4730.77 705.138 4718.51 694.24 4706.25C692.878 4704.89 691.517 4702.16 688.793 4700.8C676.532 4685.82 664.273 4670.83 652.012 4657.21C616.594 4613.61 581.172 4568.66 547.116 4522.34C455.844 4397.01 374.11 4263.51 303.273 4123.2C296.461 4109.58 289.65 4095.95 282.839 4082.33C276.027 4068.71 269.216 4055.09 262.405 4040.1C94.8468 3677.74 0.851562 3273.15 0.851562 2848.12C0.851562 1276.07 1275.93 0.988281 2847.97 0.988281C4420.02 0.988281 5697.82 1271.98 5697.82 2844.03Z" fill="url(#paint0_linear_34259_114185)"/>
<path d="M3535.92 1197.13C3535.92 1199.85 3535.92 1202.58 3534.55 1205.3C3514.12 1386.48 3258.02 1626.24 2867.05 1592.19L2466.55 1559.49C2474.72 1513.17 2484.25 1469.58 2495.15 1428.71C2612.31 994.153 2872.5 904.243 2933.8 1178.06C2936.53 1190.32 2939.25 1203.94 2940.61 1217.56C2940.61 1217.56 2943.34 1210.75 2950.15 1198.49C2982.84 1142.64 3102.72 977.806 3345.2 1011.86C3356.1 1013.22 3367 1014.59 3379.26 1017.31C3384.71 1018.67 3388.79 1018.67 3394.24 1020.04C3475.98 1039.11 3519.57 1086.79 3530.47 1148.09C3535.92 1164.44 3535.92 1180.78 3535.92 1197.13Z" fill="#F4D93B"/>
<path d="M2935.17 1178.11L2898.39 1134.51C2898.39 1134.51 2612.32 1120.89 2527.86 1484.62L2495.16 1428.76C2612.32 994.201 2872.51 904.292 2935.17 1178.11Z" fill="white"/>
<path d="M3535.91 1207.92C3535.91 1207.92 3535.9 1206.55 3534.54 1205.19C3519.56 1183.4 3377.88 999.49 2982.83 1236.52L2952.86 1199.74C2985.55 1143.89 3105.43 979.056 3347.91 1013.11L3381.97 1018.56L3527.73 1044.45L3533.18 1150.7L3535.91 1197.02V1207.92Z" fill="white"/>
<path d="M2943.32 1639.89C2917.44 1639.89 2891.55 1638.53 2864.31 1635.8C2839.79 1633.08 2822.08 1612.64 2823.44 1586.76C2826.16 1562.24 2846.6 1544.53 2872.48 1545.89C3229.39 1577.22 3465.06 1364.71 3490.95 1206.69C3499.12 1154.92 3488.22 1086.81 3388.78 1063.65C3101.34 995.538 2989.63 1224.4 2985.55 1233.93C2977.37 1251.64 2958.3 1262.54 2937.87 1259.82C2918.8 1257.09 2902.45 1242.11 2899.73 1221.67C2886.11 1124.95 2847.96 1066.38 2800.28 1065.01C2717.18 1063.65 2574.15 1217.59 2512.84 1564.96C2508.76 1589.48 2485.6 1605.83 2461.08 1601.74C2436.56 1597.66 2420.21 1574.5 2424.3 1549.98C2493.77 1152.2 2668.14 973.742 2800.28 976.466C2872.48 977.828 2928.33 1026.87 2962.39 1109.97C3034.59 1026.87 3177.63 921.976 3407.85 976.466C3533.17 1006.44 3597.2 1100.43 3578.13 1220.31C3546.8 1406.94 3312.49 1639.89 2943.32 1639.89Z" fill="#232323"/>
<path d="M4963.57 4752.48C4951.31 4766.1 4939.05 4778.36 4926.79 4791.98C4926.79 4791.98 4926.79 4793.34 4925.43 4793.34C4830.07 4895.51 4726.53 4989.51 4617.55 5076.69C4605.29 5086.23 4593.03 5095.77 4579.41 5106.66C4567.15 5116.2 4553.53 5125.73 4541.27 5135.27C4353.28 5274.22 4147.58 5390.01 3928.25 5479.92C3595.86 5616.15 3230.77 5692.44 2849.34 5692.44C2196.82 5692.44 1596.07 5473.11 1116.55 5103.94C1057.97 5058.98 1002.12 5012.67 947.632 4963.63C884.968 4907.77 825.03 4849.2 767.815 4787.89C755.555 4774.27 743.292 4760.65 731.031 4747.03C765.088 4578.11 801.87 4410.55 834.564 4244.35C848.187 4176.24 860.448 4109.49 872.708 4042.74C875.433 4026.39 878.155 4008.68 880.88 3992.33C883.604 3975.99 886.33 3959.64 889.054 3943.29C904.039 3846.57 916.299 3752.58 925.835 3661.3C934.008 3575.48 938.097 3491.02 938.097 3410.65C938.097 2399.85 1626.04 1816.8 2361.66 1620.63C2378 1616.55 2395.71 1612.46 2412.06 1608.37C2428.41 1604.29 2446.12 1600.2 2462.46 1597.48C2495.16 1590.66 2526.49 1583.85 2559.18 1578.4C2625.93 1566.14 2692.68 1557.97 2758.07 1553.88C2764.88 1552.52 2773.06 1552.52 2779.87 1552.52C2798.94 1551.16 2818.01 1549.8 2835.72 1549.8H2884.76C2898.38 1549.8 2910.64 1551.16 2924.27 1552.52C2973.31 1555.25 3023.71 1560.7 3072.75 1567.51C3102.72 1571.59 3132.69 1575.68 3162.66 1581.13C3204.89 1587.94 3247.12 1597.48 3289.35 1607.01C3305.7 1611.1 3323.41 1615.19 3339.75 1619.27C3356.1 1623.36 3371.09 1627.45 3387.43 1632.89C3604.03 1694.2 3815.18 1792.28 4004.54 1924.42C4437.74 2228.2 4752.42 2721.34 4752.42 3414.73C4752.42 3482.85 4755.14 3553.69 4761.95 3625.89C4764.68 3661.3 4768.77 3696.72 4772.85 3733.5C4774.22 3749.85 4776.94 3766.2 4778.3 3782.55C4781.03 3798.89 4782.39 3815.24 4785.11 3832.95C4791.92 3886.08 4800.1 3939.21 4809.63 3992.33C4853.23 4233.45 4910.44 4492.28 4963.57 4752.48Z" fill="#F4D93B"/>
<path d="M4970.14 4765.6C4957.88 4779.22 4945.62 4791.48 4933.36 4805.11C4933.36 4805.11 4933.36 4806.47 4932 4806.47C4836.64 4908.64 4733.11 5002.63 4624.13 5089.82C4611.87 5099.35 4599.6 5108.89 4585.98 5119.79C4573.72 5129.32 4560.1 5138.86 4547.84 5148.4C4359.85 5287.35 4154.15 5403.14 3934.83 5493.05C4498.8 4719.28 4327.15 3595.42 3605.16 1825.84L4011.11 1930.73C4444.31 2234.52 4758.99 2727.66 4758.99 3421.05C4758.99 3489.16 4761.71 3560 4768.53 3632.2C4771.25 3667.62 4775.34 3703.04 4779.42 3739.82C4780.79 3756.16 4783.51 3772.51 4784.87 3788.86C4787.6 3805.21 4788.96 3821.55 4791.68 3839.26C4798.5 3892.39 4806.67 3945.52 4816.21 3998.65C4859.8 4246.58 4917.01 4505.41 4970.14 4765.6Z" fill="#F2B53D"/>
<path d="M4967.66 4553.58C4925.43 4354.69 4885.93 4161.25 4854.6 3975.98C4847.79 3939.2 4842.33 3903.78 4838.25 3867C4834.16 3843.84 4831.44 3820.68 4828.71 3797.52C4825.99 3774.36 4823.27 3752.57 4820.54 3729.41C4808.28 3617.7 4800.11 3511.45 4800.11 3407.92C4800.11 3288.04 4790.57 3170.88 4771.5 3059.18C4702.02 2635.51 4500.41 2271.79 4180.28 1995.25C3966.41 1811.34 3703.49 1671.03 3418.78 1587.93C3403.79 1583.85 3388.81 1579.76 3373.82 1575.67C3357.47 1571.59 3342.49 1567.5 3327.51 1563.41C3296.17 1555.24 3263.48 1548.43 3230.78 1541.62C3206.26 1537.53 3183.11 1532.08 3158.59 1527.99C3128.62 1522.54 3100.01 1518.46 3071.4 1514.37C3010.1 1506.2 2950.16 1502.11 2888.86 1499.39H2886.14H2837.09H2835.73C2717.21 1504.84 2598.7 1518.46 2481.54 1542.98C2463.83 1547.07 2447.49 1549.79 2429.78 1553.88C2425.69 1555.24 2421.6 1555.24 2417.52 1556.6C2412.07 1557.96 2407.98 1559.33 2402.53 1560.69C2394.36 1562.05 2386.19 1564.78 2378.01 1567.5C2363.03 1571.59 2348.04 1575.67 2333.06 1579.76C2034.72 1662.86 1755.46 1805.89 1529.33 1995.25C1190.12 2281.32 981.699 2660.03 917.673 3101.41C902.688 3200.85 895.875 3303.02 895.875 3407.92C895.875 3579.56 875.441 3763.47 844.109 3956.91C841.384 3973.25 838.662 3990.96 835.937 4007.31C833.213 4023.66 830.486 4041.37 826.399 4059.08C815.501 4117.65 804.604 4176.23 793.706 4236.17C773.272 4339.7 751.475 4445.96 728.317 4553.58C717.419 4602.62 707.882 4653.02 696.984 4703.43C707.882 4715.69 718.782 4727.95 729.681 4740.21C731.043 4741.57 732.406 4742.93 733.768 4745.66C746.028 4759.28 758.288 4772.9 770.548 4786.52C785.533 4715.69 800.519 4643.49 815.503 4572.65C838.662 4463.67 860.457 4356.05 882.253 4251.16C897.238 4174.87 910.862 4099.95 924.484 4026.38C927.209 4010.04 929.931 3993.69 932.656 3977.34C935.38 3960.99 938.106 3944.65 940.831 3928.3C955.815 3831.58 968.074 3737.58 976.247 3646.31C983.059 3565.94 987.146 3485.56 987.146 3409.28C987.146 2470.68 1616.51 1872.65 2352.13 1668.31C2368.47 1664.22 2384.82 1658.77 2401.17 1654.68C2417.52 1650.6 2433.87 1646.51 2450.21 1642.42C2542.85 1621.99 2635.48 1607 2729.48 1597.47C2747.19 1596.11 2764.89 1594.74 2783.97 1593.38C2803.04 1592.02 2822.11 1590.66 2839.82 1590.66H2887.5C2901.12 1590.66 2916.1 1592.02 2929.73 1593.38C2980.13 1596.11 3031.9 1601.56 3082.3 1608.37C3139.51 1616.54 3196.73 1626.08 3253.95 1638.34C3271.65 1642.42 3290.73 1646.51 3308.44 1650.6C3324.78 1654.68 3342.49 1658.77 3360.2 1664.22C4075.38 1857.66 4712.92 2428.45 4712.92 3410.64C4712.92 3476.03 4715.65 3544.14 4721.1 3612.26C4725.18 3659.93 4729.27 3707.61 4734.72 3756.65C4736.08 3773 4738.81 3789.35 4741.53 3807.06C4744.25 3823.41 4745.62 3839.75 4748.34 3856.1C4755.15 3902.42 4761.96 3950.1 4770.14 3997.77C4801.47 4183.04 4840.97 4375.12 4883.2 4574.01C4898.19 4647.57 4914.54 4721.14 4929.52 4794.7C4929.52 4794.7 4929.52 4793.34 4930.88 4793.34C4943.14 4781.08 4955.4 4767.45 4967.66 4753.83C4969.02 4752.47 4970.39 4751.11 4971.75 4748.38C4982.65 4736.12 4993.55 4723.86 5004.45 4711.6C4989.46 4658.47 4978.56 4605.34 4967.66 4553.58ZM872.718 4041.37C860.457 4108.12 848.196 4174.87 834.574 4242.98C801.88 4407.82 765.097 4576.74 731.041 4745.66C743.301 4759.28 755.564 4772.9 767.824 4786.52C782.809 4715.69 797.791 4643.49 812.776 4572.65C835.935 4463.67 857.733 4356.05 879.529 4251.16C894.514 4174.87 908.134 4099.95 921.757 4026.38C905.41 4030.47 889.065 4034.56 872.718 4041.37ZM3165.4 1574.31C3135.43 1568.86 3105.46 1564.78 3074.12 1560.69C3025.08 1553.88 2974.68 1549.79 2925.64 1545.7C2912.02 1544.34 2898.4 1544.34 2886.14 1542.98H2837.09C2818.02 1544.34 2800.31 1544.34 2781.24 1545.7C2774.43 1545.7 2766.26 1547.07 2759.44 1547.07C2694.06 1552.51 2627.3 1560.69 2560.55 1571.59C2527.86 1577.03 2496.53 1583.85 2463.84 1590.66C2458.39 1605.64 2452.94 1621.99 2448.85 1639.7C2541.48 1619.26 2634.12 1604.28 2728.11 1594.75C2745.82 1593.38 2763.53 1592.02 2782.6 1590.66C2801.67 1589.3 2820.75 1587.93 2838.46 1587.93H2886.14C2899.76 1587.93 2914.74 1589.3 2928.36 1590.66C2978.77 1593.38 3030.53 1598.83 3080.94 1605.64C3138.15 1613.82 3195.37 1623.35 3252.58 1635.61C3267.57 1623.35 3281.19 1612.45 3293.45 1600.19C3249.86 1590.66 3207.63 1582.48 3165.4 1574.31Z" fill="#232323"/>
<path d="M4805.53 3627.23C4625.71 3591.81 4449.98 3560.48 4279.7 3535.96C2561.89 3281.21 1374.01 3537.32 1006.2 3635.4C927.185 3657.2 886.316 3670.82 886.316 3670.82L1018.45 1161.53L1111.09 1240.54L1576.98 1638.32C2225.41 1443.52 2842.52 1433.98 3311.13 1477.58C3827.43 1525.26 4162.54 1638.32 4162.54 1638.32L4654.32 1120.66L4805.53 3627.23Z" fill="#4E5A6B"/>
<path d="M1111.1 1240.76L1006.21 3635.62C927.2 3657.41 886.332 3671.04 886.332 3671.04L1018.47 1161.75L1111.1 1240.76Z" fill="white"/>
<path d="M4279.74 3535.95C4309.71 3324.8 4501.79 1705.07 3285.29 1499.37L3311.17 1477.58C3827.47 1525.26 4162.58 1638.32 4162.58 1638.32L4654.36 1120.66L4804.21 3627.23C4625.75 3591.81 4450.02 3560.48 4279.74 3535.95Z" fill="#3C4F66"/>
<path d="M886.326 3715.83C876.79 3715.83 867.255 3713.11 859.081 3706.3C846.821 3696.76 840.009 3683.14 841.371 3668.15L973.509 1158.87C974.872 1142.52 984.407 1127.53 1000.75 1120.72C1015.74 1113.91 1034.81 1116.64 1047.07 1127.53L1586.52 1587.98C2288.09 1382.28 2951.51 1393.18 3384.7 1439.49C3785.21 1483.08 4063.11 1560.73 4148.93 1586.62L4621.63 1089.39C4633.89 1077.13 4652.97 1071.68 4669.31 1078.49C4685.66 1083.94 4697.92 1100.29 4697.92 1118L4847.77 3624.56C4849.13 3638.18 4842.32 3651.81 4832.78 3661.34C4821.89 3670.88 4808.26 3673.6 4794.64 3670.88C3565.88 3425.67 2571.44 3451.55 1954.33 3514.22C1285.47 3583.69 901.31 3711.75 898.585 3713.11C895.861 3715.83 890.413 3715.83 886.326 3715.83ZM1057.97 1254.23L934.005 3609.58C1068.87 3570.07 1414.88 3481.52 1943.44 3425.67C2557.81 3361.64 3541.36 3337.12 4756.5 3571.43L4616.19 1225.62L4195.25 1668.35C4182.99 1680.61 4165.28 1686.06 4148.93 1680.61C4136.67 1676.53 2921.54 1281.47 1589.25 1680.61C1574.26 1684.7 1559.28 1681.97 1547.02 1672.44L1057.97 1254.23Z" fill="#232323"/>
<path d="M2004.76 3296.11C2086.77 3296.11 2153.25 3229.63 2153.25 3147.62C2153.25 3065.62 2086.77 2999.14 2004.76 2999.14C1922.76 2999.14 1856.28 3065.62 1856.28 3147.62C1856.28 3229.63 1922.76 3296.11 2004.76 3296.11Z" fill="white"/>
<path d="M3698.08 3296.11C3780.09 3296.11 3846.57 3229.63 3846.57 3147.63C3846.57 3065.62 3780.09 2999.14 3698.08 2999.14C3616.07 2999.14 3549.59 3065.62 3549.59 3147.63C3549.59 3229.63 3616.07 3296.11 3698.08 3296.11Z" fill="white"/>
<path d="M2437.97 3370.29C2781.26 3176.84 2950.18 3170.03 3283.94 3405.7C3361.59 3460.19 3334.34 3539.21 3263.5 3565.09C3094.58 3626.39 2624.6 3615.49 2440.7 3544.66C2356.24 3511.96 2343.98 3422.05 2437.97 3370.29Z" fill="#FF814A"/>
<path d="M3369.7 3441.97C3360.17 3413.37 3339.73 3388.85 3309.76 3367.05C2970.56 3128.65 2786.66 3120.48 2416.12 3328.91C2367.08 3356.15 2337.11 3395.66 2330.3 3439.25C2328.94 3448.78 2328.94 3458.32 2328.94 3467.86C2333.02 3519.62 2368.44 3561.85 2425.66 3583.65C2533.28 3624.52 2729.44 3646.31 2913.35 3646.31C3060.47 3646.31 3199.42 3632.69 3279.79 3602.72C3332.92 3583.65 3369.7 3541.42 3375.15 3493.74C3376.51 3477.39 3375.15 3459.68 3369.7 3441.97ZM3258 3440.61C3270.26 3448.79 3287.97 3465.13 3285.24 3484.2C3283.88 3499.19 3268.9 3514.17 3247.1 3520.98C3086.35 3579.56 2628.63 3567.3 2454.26 3501.91C2431.11 3493.74 2416.12 3478.75 2414.76 3462.41C2414.76 3454.23 2417.48 3444.7 2424.3 3435.16C2431.11 3425.63 2443.37 3416.09 2456.99 3407.92C2794.83 3218.56 2944.68 3222.65 3248.46 3436.52C3253.91 3437.89 3255.27 3439.25 3258 3440.61Z" fill="#232323"/>
<path d="M1379.51 1771.85C1361.8 1771.85 1345.45 1762.31 1338.64 1745.96C1329.11 1722.81 1338.64 1696.92 1361.8 1687.39L1559.33 1598.84C1582.49 1589.3 1608.37 1598.84 1617.91 1622C1627.44 1645.16 1617.91 1671.04 1594.75 1680.58L1397.22 1769.12C1391.77 1770.48 1386.32 1771.85 1379.51 1771.85Z" fill="#232323"/>
<path d="M4390.08 1812.86C4381.91 1812.86 4375.1 1811.5 4368.28 1807.41L4142.15 1678C4120.35 1665.74 4113.54 1638.49 4125.8 1616.7C4138.06 1594.9 4165.31 1588.09 4187.11 1600.35L4413.24 1729.76C4435.04 1742.02 4441.85 1769.27 4429.59 1791.06C4420.05 1804.69 4405.07 1812.86 4390.08 1812.86Z" fill="#232323"/>
<defs>
<linearGradient id="paint0_linear_34259_114185" x1="2849.34" y1="0.988281" x2="2849.34" y2="5693.89" gradientUnits="userSpaceOnUse">
<stop stop-color="#71E256"/>
<stop offset="1" stop-color="#3BD117"/>
</linearGradient>
</defs>
</svg>
