<svg width="5697" height="5694" viewBox="0 0 5697 5694" fill="none" xmlns="http://www.w3.org/2000/svg">
<path d="M5696.07 2844.03C5696.07 3292.22 5592.54 3717.25 5407.28 4094.59C5400.46 4109.58 5392.29 4124.56 5385.48 4139.55C5378.67 4154.53 5370.49 4168.15 5362.32 4183.14C5287.4 4323.45 5201.57 4455.59 5106.21 4580.92C5084.42 4608.17 5063.98 4635.41 5040.83 4662.66C5028.57 4677.64 5016.31 4691.26 5004.05 4706.25C4991.79 4719.87 4979.52 4734.86 4965.9 4748.48C4952.28 4763.46 4938.66 4778.45 4925.03 4793.43C4829.68 4895.6 4726.15 4990.96 4615.8 5078.15C4603.54 5087.68 4591.28 5097.22 4577.66 5108.12C4565.4 5117.65 4551.78 5127.19 4539.52 5136.73C4066.81 5486.83 3481.04 5693.89 2847.59 5693.89C2195.07 5693.89 1594.31 5474.57 1114.8 5105.39C1056.22 5060.44 1000.37 5014.12 945.877 4965.08C868.228 4895.6 794.665 4820.68 725.19 4743.03C712.93 4729.41 700.67 4714.42 687.048 4700.8C674.787 4685.82 662.526 4670.83 650.266 4657.21C614.847 4613.61 579.429 4568.66 545.372 4522.34C454.101 4397.01 372.365 4263.51 301.528 4123.2C294.716 4109.58 287.905 4095.95 281.094 4082.33C274.283 4068.71 267.471 4055.09 262.022 4040.1C94.464 3677.74 0.46875 3273.15 0.46875 2848.12C0.46875 1276.07 1275.54 0.988281 2847.59 0.988281C4419.64 0.988281 5696.07 1271.98 5696.07 2844.03Z" fill="url(#paint0_linear_34259_114221)"/>
<path d="M5004.12 4704.96C4991.86 4718.58 4979.6 4733.57 4965.98 4747.19C4952.36 4762.18 4938.73 4777.16 4925.11 4792.15C4829.75 4894.32 4726.22 4989.67 4615.88 5076.86C4603.62 5086.4 4591.36 5095.93 4577.74 5106.83C4565.48 5116.36 4551.85 5125.9 4539.59 5135.44C4487.83 5174.94 4433.34 5211.72 4377.48 5247.14C3936.11 5529.13 3410.28 5692.6 2847.67 5692.6C2195.15 5692.6 1594.39 5473.28 1114.88 5104.1C1056.3 5059.15 1000.45 5012.83 945.958 4963.79C868.309 4894.32 794.746 4819.39 725.271 4741.74C713.011 4728.12 700.751 4713.13 687.129 4699.51C732.083 4461.12 786.573 4220 832.89 3985.69C846.512 3917.57 858.773 3850.82 871.034 3784.07C873.758 3767.72 876.482 3750.02 879.207 3733.67C881.931 3717.32 884.656 3700.97 887.38 3684.63C917.35 3498 936.421 3318.18 936.421 3151.98C936.421 2141.18 1624.36 1558.13 2359.98 1361.97C2376.33 1357.88 2394.04 1353.8 2410.38 1349.71C2426.73 1345.62 2444.44 1341.54 2460.79 1338.81C2586.12 1311.57 2711.44 1295.22 2834.05 1289.77H2883.09C3017.95 1295.22 3154.18 1314.29 3289.04 1345.62C3305.39 1349.71 3323.1 1353.8 3339.44 1357.88C3355.79 1361.97 3370.78 1366.06 3387.12 1371.51C3699.08 1460.05 3998.78 1620.8 4237.17 1856.47C4546.4 2161.62 4752.1 2590.73 4752.1 3153.34C4752.1 3255.51 4758.92 3361.77 4771.18 3472.11C4772.54 3488.46 4775.26 3504.81 4776.63 3521.15C4779.35 3537.5 4780.71 3553.85 4783.44 3571.56C4790.25 3624.69 4798.42 3677.81 4807.96 3730.94C4862.45 4041.54 4941.46 4376.66 5004.12 4704.96Z" fill="#F4D93B"/>
<path d="M4965.85 4294.8C4923.62 4095.91 4884.12 3902.47 4852.79 3717.2C4845.97 3680.42 4840.52 3645 4836.44 3608.22C4832.35 3585.06 4829.62 3561.9 4826.9 3538.74C4824.18 3515.58 4821.45 3493.79 4818.73 3470.63C4806.47 3358.92 4798.29 3252.67 4798.29 3149.13C4798.29 2574.26 4584.42 2086.57 4178.47 1736.47C3964.59 1552.56 3701.68 1412.25 3416.96 1329.15C3401.98 1325.07 3387 1320.98 3372.01 1316.89C3355.66 1312.81 3340.68 1308.72 3325.69 1304.63C3182.66 1269.21 3035.53 1247.42 2887.05 1240.61H2884.32H2835.28H2833.92C2715.4 1246.05 2596.89 1259.68 2479.73 1284.2C2462.02 1288.28 2445.68 1291.01 2427.97 1295.1C2410.26 1299.18 2393.91 1303.27 2376.2 1307.35C2060.16 1387.73 1764.55 1534.85 1527.51 1735.11C1112.03 2085.21 892.703 2574.26 892.703 3147.77C892.703 3319.42 872.268 3503.32 840.936 3696.76C838.212 3713.11 835.487 3730.82 832.763 3747.17C830.038 3763.52 827.315 3781.22 823.228 3798.93C812.33 3857.51 801.431 3916.09 790.533 3976.03C770.099 4079.56 748.303 4185.82 725.144 4293.44C700.624 4411.95 674.74 4531.83 651.582 4651.71C663.842 4666.69 676.104 4681.68 688.364 4695.3C700.624 4710.29 712.884 4723.91 726.506 4737.53C752.389 4595.86 782.359 4452.82 812.329 4311.14C835.487 4202.16 857.284 4094.54 879.08 3989.65C894.065 3913.36 907.687 3838.44 921.31 3764.88C924.034 3748.53 926.758 3732.18 929.483 3715.84C932.207 3699.49 934.932 3683.14 937.656 3666.79C966.263 3485.61 983.973 3311.24 983.973 3147.77C983.973 2209.17 1613.34 1611.14 2348.96 1406.8C2365.3 1402.71 2381.65 1397.26 2398 1393.18C2414.34 1389.09 2430.69 1385 2447.04 1380.92C2575.09 1352.31 2705.87 1334.6 2836.64 1329.15H2884.32C3005.56 1334.6 3129.53 1349.59 3250.77 1376.83C3268.48 1380.92 3287.55 1385 3305.26 1389.09C3321.61 1393.18 3339.32 1397.26 3357.03 1402.71C4072.21 1596.15 4709.75 2166.94 4709.75 3149.13C4709.75 3260.84 4717.92 3376.63 4732.91 3495.15C4734.27 3511.5 4736.99 3527.84 4738.35 3545.55C4741.08 3561.9 4742.44 3578.25 4745.16 3594.59C4751.98 3640.91 4758.79 3688.59 4766.96 3736.27C4798.29 3921.54 4837.8 4113.62 4880.03 4312.51C4910 4456.91 4941.33 4602.67 4967.21 4747.07C4979.47 4733.44 4993.1 4718.46 5005.36 4704.84C5017.62 4689.85 5029.88 4676.23 5042.14 4661.25C5017.62 4538.64 4991.73 4416.04 4965.85 4294.8ZM870.907 3782.59C858.646 3849.34 846.385 3916.09 832.763 3984.2C786.446 4218.51 731.957 4459.63 687.002 4698.03C699.262 4713.01 711.522 4726.63 725.144 4740.26C751.027 4598.58 780.997 4455.54 810.967 4313.87C834.126 4204.89 855.922 4097.27 877.718 3992.38C892.703 3916.09 906.325 3841.16 919.948 3767.6C903.601 3771.69 887.254 3775.78 870.907 3782.59ZM2884.32 1285.56H2835.28C2712.68 1291.01 2587.35 1307.35 2462.02 1334.6C2456.57 1349.59 2451.12 1365.93 2447.04 1383.64C2575.09 1355.04 2705.87 1337.33 2836.64 1331.88H2884.32C3005.56 1337.33 3129.53 1352.31 3250.77 1379.56C3265.75 1367.3 3279.38 1356.4 3291.64 1344.14C3155.41 1310.08 3017.82 1291.01 2884.32 1285.56Z" fill="#232323"/>
<path d="M5004.06 4704.68C4991.8 4718.3 4979.54 4733.29 4965.92 4746.91C4952.3 4761.9 4938.67 4776.88 4925.05 4791.87C4829.69 4894.04 4726.16 4989.4 4615.82 5076.58C4603.56 5086.12 4591.3 5095.65 4577.68 5106.55C4565.42 5116.08 4551.79 5125.62 4539.53 5135.16C4487.77 5174.66 4433.28 5211.44 4377.42 5246.86C4637.62 4486.72 4250.73 3673.45 4250.73 3673.45C4250.73 3673.45 3903.36 3629.86 3513.75 3238.89L4237.11 1854.83C4546.34 2159.98 4752.04 2589.09 4752.04 3151.7C4752.04 3253.87 4758.86 3360.13 4771.12 3470.47C4772.48 3486.82 4775.2 3503.17 4776.57 3519.51C4779.29 3535.86 4780.65 3552.21 4783.38 3569.92C4790.19 3623.05 4798.36 3676.17 4807.9 3729.3C4862.39 4041.26 4941.4 4376.38 5004.06 4704.68Z" fill="#F2B53D"/>
<path d="M4528.5 3307.07C4412.7 3358.84 4113.01 3422.86 3816.03 3360.2C3757.46 3347.94 3697.52 3330.23 3640.3 3307.07C3479.56 3240.32 3339.24 3086.38 3177.14 2977.4C3104.94 2928.36 3027.29 2888.86 2941.47 2871.15C2877.44 2857.52 2809.33 2856.16 2735.76 2872.51C2658.12 2888.86 2573.66 2924.28 2482.38 2984.21C1918.41 3349.3 1425.27 3422.86 1144.65 3270.29L1215.49 3097.28L1283.6 2867.06L1511.1 2598.69L1833.95 2482.9L2325.72 2392.99L2404.74 2395.72L2636.32 2402.53L2779.36 2406.61L3100.85 2416.15L3204.38 2427.05L3732.94 2484.26L4162.05 2605.5L4420.88 2884.77L4528.5 3307.07Z" fill="#F4A651"/>
<path d="M2942.92 2871.39C2878.89 2857.77 2810.78 2856.41 2737.22 2872.76L2404.82 2395.96L2636.41 2402.78L2942.92 2871.39Z" fill="white"/>
<path d="M2151.52 2984.24C2151.72 2902.24 2085.4 2835.59 2003.39 2835.4C1921.38 2835.2 1854.74 2901.52 1854.55 2983.52C1854.35 3065.53 1920.67 3132.17 2002.67 3132.37C2084.68 3132.57 2151.32 3066.25 2151.52 2984.24Z" fill="#232323"/>
<path d="M3696.27 3132.9C3778.27 3132.9 3844.75 3066.42 3844.75 2984.41C3844.75 2902.41 3778.27 2835.93 3696.27 2835.93C3614.26 2835.93 3547.78 2902.41 3547.78 2984.41C3547.78 3066.42 3614.26 3132.9 3696.27 3132.9Z" fill="#232323"/>
<path d="M2436.19 3029.17C2779.48 2835.73 2948.4 2828.92 3282.15 3064.59C3359.8 3119.08 3332.55 3198.09 3261.72 3223.98C3092.8 3285.28 2622.82 3274.38 2438.91 3203.54C2354.45 3170.85 2342.19 3080.94 2436.19 3029.17Z" fill="#FF814A"/>
<path d="M3308 3026C2968.8 2787.61 2784.9 2779.43 2414.36 2987.86C2354.42 3021.92 2323.09 3072.32 2327.18 3126.81C2331.27 3178.58 2366.69 3220.81 2423.9 3242.6C2531.52 3283.47 2727.68 3305.27 2911.59 3305.27C3058.71 3305.27 3197.66 3291.64 3278.04 3261.67C3331.16 3242.6 3367.94 3200.37 3373.39 3152.69C3378.84 3107.74 3355.68 3060.06 3308 3026ZM2453.87 3160.87C2430.71 3152.69 2415.73 3137.71 2414.36 3121.36C2413 3103.65 2429.35 3083.22 2456.59 3066.87C2797.16 2876.15 2945.65 2881.6 3254.88 3099.57C3265.78 3107.74 3284.85 3124.09 3282.12 3143.16C3280.76 3158.14 3265.78 3173.13 3243.98 3179.94C3085.96 3238.51 2626.88 3226.26 2453.87 3160.87Z" fill="#232323"/>
<path d="M2369.39 1123.62C2468.84 556.919 2794.41 431.591 2844.82 781.692C2844.82 781.692 2970.14 507.878 3299.81 586.89C3629.48 665.901 3344.77 1206.72 2769.89 1157.68L2369.39 1123.62Z" fill="#F4D93B"/>
<path d="M2846.15 1203.8C2820.27 1203.8 2794.38 1202.44 2767.14 1199.72C2742.62 1196.99 2724.91 1176.56 2726.27 1150.67C2729 1126.15 2749.43 1108.44 2775.31 1109.81C3132.22 1141.14 3367.9 928.627 3393.78 770.605C3401.95 718.839 3391.05 650.726 3291.61 627.567C3004.17 559.454 2892.47 788.314 2888.38 797.85C2880.21 815.559 2861.14 826.456 2840.7 823.732C2821.63 821.007 2805.28 806.023 2802.56 785.589C2788.94 688.869 2750.79 630.291 2703.11 628.929C2620.02 627.567 2476.98 781.502 2415.68 1128.88C2411.59 1153.4 2388.43 1169.75 2363.91 1165.66C2339.39 1161.57 2323.04 1138.41 2327.13 1113.89C2396.6 716.114 2570.98 537.658 2703.11 540.382C2775.31 541.744 2831.17 590.785 2865.22 673.883C2937.42 590.785 3080.46 485.892 3310.68 540.382C3436.01 570.352 3500.03 664.348 3480.96 784.227C3449.63 970.857 3215.32 1203.8 2846.15 1203.8Z" fill="#232323"/>
<path d="M5004.04 3722.64L4837.85 3767.6C4711.16 3801.65 4584.47 3717.19 4566.76 3587.78L4506.82 3142.32C4463.22 2820.82 4216.66 2564.72 3897.89 2510.23C2929.32 2345.39 2230.48 2397.16 1801.37 2477.53C1498.95 2533.39 1261.92 2769.06 1206.07 3071.48L1099.81 3640.9C1076.65 3760.78 959.499 3838.43 839.62 3812.55L757.884 3794.84L650.266 3770.32C650.266 3770.32 403.697 849.629 2760.4 795.138C3160.91 785.602 3490.57 859.165 3761.66 989.942C5130.73 1642.47 5004.04 3722.64 5004.04 3722.64Z" fill="#EAEAEA"/>
<path d="M3761.65 988.493C3727.59 983.044 3693.54 977.594 3659.48 970.783C1052.12 525.323 839.608 2486.98 757.873 3792.03L650.254 3767.51C650.254 3767.51 403.686 846.818 2760.39 792.327C3160.89 784.153 3490.56 857.716 3761.65 988.493Z" fill="white"/>
<path d="M783.739 3594.44C778.29 3594.44 772.84 3594.44 767.391 3593.08L648.875 3579.46L650.237 3565.83L768.754 3579.46C801.449 3583.54 832.78 3574.01 858.663 3553.57C884.546 3533.14 899.53 3503.17 903.617 3470.48C925.413 3251.15 985.352 2843.83 1155.63 2582.28C1283.69 2384.75 1452.61 2260.79 1701.9 2179.05C1968.9 2091.86 2336.71 2051 2861.18 2051C3888.32 2051 4420.97 2245.8 4591.25 2684.45C4701.59 2969.16 4750.63 3249.79 4769.71 3391.46C4779.24 3456.85 4839.18 3503.17 4904.57 3495L5004.01 3482.74L5005.38 3496.36L4905.93 3508.62C4832.37 3518.15 4765.62 3466.39 4756.08 3394.19C4737.01 3252.51 4687.97 2974.61 4577.63 2691.26C4410.07 2259.42 3881.51 2067.34 2861.18 2067.34C2338.08 2067.34 1970.26 2108.21 1705.99 2195.4C1458.06 2277.13 1291.86 2399.74 1166.53 2593.18C997.613 2852.01 937.673 3256.6 915.877 3474.56C911.79 3511.34 894.081 3544.04 866.836 3565.83C843.678 3584.91 815.071 3594.44 783.739 3594.44Z" fill="#232323"/>
<path d="M1468.97 1606.94L1215.59 1525.2L1219.68 1512.94L1466.25 1591.95L1933.5 1282.72L1849.04 999.367L1861.3 995.281L1948.49 1288.17L1468.97 1606.94Z" fill="#232323"/>
<path d="M3816.13 3361.63C3757.55 3349.37 3697.61 3331.66 3640.4 3308.5C3479.65 3241.75 3339.34 3087.81 3177.23 2978.83L2779.45 2406.68L3100.94 2416.21L3204.47 2427.11L3816.13 3361.63Z" fill="white"/>
<path d="M4013.62 3440.66C3693.49 3440.66 3512.31 3288.09 3344.75 3146.41C3198.99 3023.81 3073.66 2918.92 2876.13 2918.92C2663.62 2918.92 2483.8 3023.81 2291.72 3134.16C1997.47 3304.44 1665.08 3497.88 1151.51 3333.05C1133.8 3327.6 1124.27 3308.52 1129.72 3290.82C1135.17 3273.11 1154.24 3263.57 1171.95 3269.02C1656.91 3424.32 1962.06 3247.22 2257.67 3076.94C2456.56 2961.15 2645.91 2852.17 2876.13 2852.17C3099.54 2852.17 3239.85 2970.68 3388.34 3096.01C3626.73 3296.26 3874.67 3504.69 4514.93 3269.02C4532.64 3262.21 4551.71 3271.74 4558.52 3289.45C4565.33 3307.16 4555.79 3326.23 4538.08 3333.05C4329.66 3409.33 4158.01 3440.66 4013.62 3440.66Z" fill="#232323"/>
<path d="M885.941 3859.99C866.87 3859.99 847.797 3857.27 828.725 3853.18L640.735 3810.95C621.663 3806.87 608.041 3790.52 605.316 3771.45C603.954 3756.46 573.984 3390.01 640.735 2910.5C702.036 2466.4 861.421 1839.76 1274.18 1380.68C1637.91 974.724 2137.86 762.211 2759.05 748.588C3402.03 733.603 3922.41 928.408 4307.93 1328.91C4739.77 1777.1 4918.22 2405.1 4991.79 2853.28C5070.8 3336.89 5050.36 3708.78 5049 3725.13C5047.64 3744.2 5034.02 3760.55 5016.31 3766L4850.11 3810.95C4777.91 3830.03 4700.26 3817.76 4637.6 3776.9C4574.94 3734.67 4532.71 3669.28 4523.17 3594.35L4463.23 3148.89C4422.36 2845.11 4192.14 2606.71 3891.08 2554.95C2919.79 2388.75 2223.68 2444.61 1809.55 2522.25C1527.56 2574.02 1302.79 2798.79 1249.66 3079.42L1143.41 3647.48C1129.79 3718.32 1090.28 3778.26 1030.34 3817.76C986.748 3845.01 936.345 3859.99 885.941 3859.99ZM692.5 3731.94L847.797 3766C894.114 3775.53 940.432 3767.36 979.937 3741.48C1019.44 3715.6 1045.33 3676.09 1054.86 3629.77L1161.12 3061.71C1221.06 2744.3 1474.44 2492.28 1793.2 2432.35C2214.14 2354.7 2921.15 2297.48 3906.07 2465.04C4246.63 2523.62 4505.46 2791.98 4551.78 3135.27L4611.72 3580.73C4618.53 3629.77 4645.77 3673.37 4686.64 3700.61C4727.51 3727.86 4779.27 3736.03 4826.95 3723.77L4961.82 3686.99C4964.54 3586.18 4968.63 3259.24 4904.6 2864.18C4832.4 2429.62 4660.76 1820.69 4245.27 1388.85C3878.82 1007.42 3380.23 822.151 2763.13 835.773C2167.82 849.396 1689.67 1052.37 1343.66 1437.89C947.242 1879.27 791.945 2486.84 732.005 2917.31C676.153 3311 687.051 3631.13 692.5 3731.94Z" fill="#232323"/>
<defs>
<linearGradient id="paint0_linear_34259_114221" x1="2848.27" y1="0.988281" x2="2848.27" y2="5693.89" gradientUnits="userSpaceOnUse">
<stop stop-color="#71E256"/>
<stop offset="1" stop-color="#3BD117"/>
</linearGradient>
</defs>
</svg>
