<svg width="41" height="40" viewBox="0 0 41 40" fill="none" xmlns="http://www.w3.org/2000/svg">
<g clip-path="url(#clip0_4587_3595)">
<mask id="path-1-outside-1_4587_3595" maskUnits="userSpaceOnUse" x="0" y="-0.434814" width="40" height="39" fill="black">
<rect fill="white" y="-0.434814" width="40" height="39"/>
<path d="M20.0613 1.02231C21.4854 1.02231 22.569 1.45574 23.312 2.32258C24.055 3.18943 24.4265 4.30395 24.4265 5.66614C24.4265 6.65682 24.2408 7.92613 23.8693 9.47408C23.5597 10.9601 23.0953 12.6628 22.4761 14.5823L21.1758 19.0404L24.798 16.3469C27.1509 14.5513 29.1323 13.313 30.7421 12.6319C32.352 11.8889 33.6523 11.5174 34.6429 11.5174C35.6955 11.5174 36.6553 11.9198 37.5221 12.7248C38.389 13.4678 38.8224 14.5513 38.8224 15.9754C38.8224 17.8949 37.7388 19.1642 35.5717 19.7834C33.4665 20.3406 30.4016 20.7121 26.3769 20.8979L21.826 21.0836L25.4482 23.5913C28.3583 25.5108 30.4016 27.2135 31.578 28.6995C32.7545 30.1855 33.3427 31.6406 33.3427 33.0647C33.3427 34.0554 32.9402 34.9842 32.1353 35.851C31.3303 36.7179 30.3397 37.1513 29.1632 37.1513C27.3676 37.1513 25.9435 36.2225 24.8909 34.365C23.8383 32.5075 22.7238 29.9379 21.5474 26.6562L20.0613 22.4768L18.4824 26.6562C17.306 30.3094 16.1296 32.9718 14.9531 34.6436C13.8386 36.2535 12.4764 37.0584 10.8666 37.0584C9.69012 37.0584 8.69943 36.625 7.8945 35.7581C7.08957 34.8913 6.68711 33.9625 6.68711 32.9718C6.68711 31.4858 7.3682 29.9998 8.73039 28.5138C10.0926 26.9658 12.0739 25.325 14.6745 23.5913L18.2038 21.0836L13.7457 20.8979C9.47341 20.7121 6.3156 20.3097 4.27232 19.6905C2.29095 19.0713 1.30027 17.802 1.30027 15.8826C1.30027 14.4585 1.7337 13.3749 2.60054 12.6319C3.52931 11.8889 4.48903 11.5174 5.47971 11.5174C7.8945 11.5174 11.1761 13.1272 15.3246 16.3469L18.9468 19.0404L17.6465 14.5823C17.0274 12.6009 16.563 10.8363 16.2534 9.28832C15.9438 7.67846 15.789 6.47107 15.789 5.66614C15.789 4.30395 16.1605 3.18943 16.9035 2.32258C17.6465 1.45574 18.6991 1.02231 20.0613 1.02231Z"/>
</mask>
<path d="M20.0613 1.02231C21.4854 1.02231 22.569 1.45574 23.312 2.32258C24.055 3.18943 24.4265 4.30395 24.4265 5.66614C24.4265 6.65682 24.2408 7.92613 23.8693 9.47408C23.5597 10.9601 23.0953 12.6628 22.4761 14.5823L21.1758 19.0404L24.798 16.3469C27.1509 14.5513 29.1323 13.313 30.7421 12.6319C32.352 11.8889 33.6523 11.5174 34.6429 11.5174C35.6955 11.5174 36.6553 11.9198 37.5221 12.7248C38.389 13.4678 38.8224 14.5513 38.8224 15.9754C38.8224 17.8949 37.7388 19.1642 35.5717 19.7834C33.4665 20.3406 30.4016 20.7121 26.3769 20.8979L21.826 21.0836L25.4482 23.5913C28.3583 25.5108 30.4016 27.2135 31.578 28.6995C32.7545 30.1855 33.3427 31.6406 33.3427 33.0647C33.3427 34.0554 32.9402 34.9842 32.1353 35.851C31.3303 36.7179 30.3397 37.1513 29.1632 37.1513C27.3676 37.1513 25.9435 36.2225 24.8909 34.365C23.8383 32.5075 22.7238 29.9379 21.5474 26.6562L20.0613 22.4768L18.4824 26.6562C17.306 30.3094 16.1296 32.9718 14.9531 34.6436C13.8386 36.2535 12.4764 37.0584 10.8666 37.0584C9.69012 37.0584 8.69943 36.625 7.8945 35.7581C7.08957 34.8913 6.68711 33.9625 6.68711 32.9718C6.68711 31.4858 7.3682 29.9998 8.73039 28.5138C10.0926 26.9658 12.0739 25.325 14.6745 23.5913L18.2038 21.0836L13.7457 20.8979C9.47341 20.7121 6.3156 20.3097 4.27232 19.6905C2.29095 19.0713 1.30027 17.802 1.30027 15.8826C1.30027 14.4585 1.7337 13.3749 2.60054 12.6319C3.52931 11.8889 4.48903 11.5174 5.47971 11.5174C7.8945 11.5174 11.1761 13.1272 15.3246 16.3469L18.9468 19.0404L17.6465 14.5823C17.0274 12.6009 16.563 10.8363 16.2534 9.28832C15.9438 7.67846 15.789 6.47107 15.789 5.66614C15.789 4.30395 16.1605 3.18943 16.9035 2.32258C17.6465 1.45574 18.6991 1.02231 20.0613 1.02231Z" fill="#FF55A7"/>
<path d="M23.312 2.32259L23.7174 1.97509V1.97508L23.312 2.32259ZM23.8693 9.47408L23.35 9.34946L23.3482 9.35729L23.3465 9.36517L23.8693 9.47408ZM22.4761 14.5823L21.9679 14.4184L21.9656 14.4255L21.9635 14.4328L22.4761 14.5823ZM21.1758 19.0404L20.6632 18.8908L20.2178 20.4182L21.4945 19.4688L21.1758 19.0404ZM24.798 16.3469L25.1167 16.7755L25.122 16.7714L24.798 16.3469ZM30.7421 12.6319L30.9502 13.1236L30.9581 13.1203L30.9659 13.1167L30.7421 12.6319ZM37.5221 12.7248L37.1588 13.116L37.1666 13.1233L37.1746 13.1302L37.5221 12.7248ZM35.5717 19.7834L35.7084 20.2997L35.7184 20.2968L35.5717 19.7834ZM26.3769 20.8979L26.3987 21.4314L26.4016 21.4313L26.3769 20.8979ZM21.826 21.0836L21.8042 20.5501L20.2112 20.6151L21.522 21.5227L21.826 21.0836ZM25.4482 23.5913L25.1442 24.0304L25.1542 24.037L25.4482 23.5913ZM31.578 28.6995L31.1594 29.0309V29.0309L31.578 28.6995ZM24.8909 34.365L24.4263 34.6282V34.6282L24.8909 34.365ZM21.5474 26.6562L21.0442 26.8351L21.0447 26.8364L21.5474 26.6562ZM20.0613 22.4768L20.5644 22.2979L20.0765 20.9257L19.5618 22.2881L20.0613 22.4768ZM18.4824 26.6562L17.9829 26.4675L17.9782 26.4799L17.9742 26.4926L18.4824 26.6562ZM14.9531 34.6436L14.5164 34.3363L14.5141 34.3397L14.9531 34.6436ZM7.8945 35.7581L7.50322 36.1215H7.50322L7.8945 35.7581ZM8.73039 28.5138L9.12409 28.8746L9.13124 28.8665L8.73039 28.5138ZM14.6745 23.5913L14.9707 24.0356L14.9773 24.0312L14.9838 24.0266L14.6745 23.5913ZM18.2038 21.0836L18.5131 21.5189L19.7851 20.6151L18.226 20.5501L18.2038 21.0836ZM13.7457 20.8979L13.7225 21.4313L13.7235 21.4314L13.7457 20.8979ZM4.27232 19.6905L4.11305 20.2002L4.11747 20.2015L4.27232 19.6905ZM2.60054 12.6319L2.26698 12.2149L2.25992 12.2206L2.25305 12.2265L2.60054 12.6319ZM15.3246 16.3469L14.9972 16.7689L15.006 16.7754L15.3246 16.3469ZM18.9468 19.0404L18.6282 19.4688L19.9049 20.4182L19.4594 18.8908L18.9468 19.0404ZM17.6465 14.5823L18.1592 14.4328L18.1562 14.423L17.6465 14.5823ZM16.2534 9.28832L15.729 9.38916L15.7298 9.39304L16.2534 9.28832ZM16.9035 2.32259L17.3089 2.67008H17.3089L16.9035 2.32259ZM20.0613 1.02231V1.55627C21.3714 1.55627 22.2894 1.95001 22.9066 2.67008L23.312 2.32259L23.7174 1.97508C22.8486 0.961464 21.5995 0.48835 20.0613 0.48835V1.02231ZM23.312 2.32259L22.9066 2.67008C23.5513 3.42221 23.8926 4.40561 23.8926 5.66614H24.4265H24.9605C24.9605 4.20229 24.5588 2.95665 23.7174 1.97509L23.312 2.32259ZM24.4265 5.66614H23.8926C23.8926 6.5974 23.7169 7.82091 23.35 9.34946L23.8693 9.47408L24.3885 9.59869C24.7646 8.03136 24.9605 6.71624 24.9605 5.66614H24.4265ZM23.8693 9.47408L23.3465 9.36517C23.0418 10.8277 22.5831 12.5115 21.9679 14.4184L22.4761 14.5823L22.9843 14.7462C23.6075 12.8142 24.0775 11.0925 24.392 9.58298L23.8693 9.47408ZM22.4761 14.5823L21.9635 14.4328L20.6632 18.8908L21.1758 19.0404L21.6884 19.1899L22.9887 14.7318L22.4761 14.5823ZM21.1758 19.0404L21.4945 19.4688L25.1166 16.7754L24.798 16.3469L24.4794 15.9185L20.8572 18.6119L21.1758 19.0404ZM24.798 16.3469L25.122 16.7714C27.4601 14.987 29.4004 13.7793 30.9502 13.1236L30.7421 12.6319L30.5341 12.1401C28.8642 12.8466 26.8417 14.1156 24.4741 15.9225L24.798 16.3469ZM30.7421 12.6319L30.9659 13.1167C32.5525 12.3844 33.7684 12.0513 34.6429 12.0513V11.5174V10.9834C33.5362 10.9834 32.1515 11.3933 30.5184 12.1471L30.7421 12.6319ZM34.6429 11.5174V12.0513C35.5438 12.0513 36.3775 12.3906 37.1588 13.116L37.5221 12.7248L37.8854 12.3335C36.933 11.4491 35.8473 10.9834 34.6429 10.9834V11.5174ZM37.5221 12.7248L37.1746 13.1302C37.8947 13.7474 38.2884 14.6654 38.2884 15.9754H38.8224H39.3563C39.3563 14.4372 38.8832 13.1882 37.8696 12.3193L37.5221 12.7248ZM38.8224 15.9754H38.2884C38.2884 16.8283 38.0506 17.4967 37.6036 18.0203C37.1501 18.5516 36.4421 18.9794 35.425 19.27L35.5717 19.7834L35.7184 20.2968C36.8684 19.9682 37.7858 19.4517 38.4158 18.7137C39.0524 17.968 39.3563 17.042 39.3563 15.9754H38.8224ZM35.5717 19.7834L35.4351 19.2672C33.3852 19.8098 30.3653 20.1793 26.3523 20.3645L26.3769 20.8979L26.4016 21.4313C30.4379 21.245 33.5478 20.8715 35.7083 20.2996L35.5717 19.7834ZM26.3769 20.8979L26.3552 20.3644L21.8042 20.5501L21.826 21.0836L21.8478 21.6172L26.3987 21.4314L26.3769 20.8979ZM21.826 21.0836L21.522 21.5227L25.1442 24.0303L25.4482 23.5913L25.7521 23.1523L22.1299 20.6446L21.826 21.0836ZM25.4482 23.5913L25.1542 24.037C28.0497 25.9468 30.0362 27.6122 31.1594 29.0309L31.578 28.6995L31.9967 28.3681C30.767 26.8148 28.6669 25.0747 25.7422 23.1456L25.4482 23.5913ZM31.578 28.6995L31.1594 29.0309C32.2858 30.4539 32.8087 31.7955 32.8087 33.0647H33.3427H33.8766C33.8766 31.4857 33.2231 29.9172 31.9967 28.3681L31.578 28.6995ZM33.3427 33.0647H32.8087C32.8087 33.8952 32.4761 34.6993 31.744 35.4877L32.1353 35.851L32.5266 36.2143C33.4043 35.269 33.8766 34.2155 33.8766 33.0647H33.3427ZM32.1353 35.851L31.744 35.4877C31.0395 36.2464 30.1903 36.6173 29.1632 36.6173V37.1513V37.6852C30.4891 37.6852 31.6212 37.1893 32.5266 36.2143L32.1353 35.851ZM29.1632 37.1513V36.6173C27.5995 36.6173 26.3346 35.8295 25.3555 34.1017L24.8909 34.365L24.4263 34.6282C25.5525 36.6155 27.1357 37.6852 29.1632 37.6852V37.1513ZM24.8909 34.365L25.3555 34.1017C24.3243 32.282 23.2217 29.7445 22.05 26.476L21.5474 26.6562L21.0447 26.8364C22.2259 30.1312 23.3523 32.7329 24.4263 34.6282L24.8909 34.365ZM21.5474 26.6562L22.0505 26.4774L20.5644 22.2979L20.0613 22.4768L19.5582 22.6557L21.0442 26.8351L21.5474 26.6562ZM20.0613 22.4768L19.5618 22.2881L17.9829 26.4675L18.4824 26.6562L18.9819 26.8449L20.5608 22.6655L20.0613 22.4768ZM18.4824 26.6562L17.9742 26.4926C16.8025 30.1311 15.6457 32.7316 14.5164 34.3363L14.9531 34.6436L15.3898 34.9509C16.6135 33.212 17.8095 30.4877 18.9907 26.8199L18.4824 26.6562ZM14.9531 34.6436L14.5141 34.3397C13.4748 35.8409 12.2622 36.5244 10.8666 36.5244V37.0584V37.5924C12.6907 37.5924 14.2024 36.6661 15.3921 34.9475L14.9531 34.6436ZM10.8666 37.0584V36.5244C9.83953 36.5244 8.99032 36.1535 8.28579 35.3948L7.8945 35.7581L7.50322 36.1215C8.40855 37.0964 9.54071 37.5924 10.8666 37.5924V37.0584ZM7.8945 35.7581L8.28579 35.3948C7.5537 34.6064 7.22107 33.8024 7.22107 32.9718H6.68711H6.15315C6.15315 34.1227 6.62545 35.1762 7.50322 36.1215L7.8945 35.7581ZM6.68711 32.9718H7.22107C7.22107 31.6609 7.81947 30.2977 9.124 28.8746L8.73039 28.5138L8.33678 28.153C6.91694 29.7019 6.15315 31.3107 6.15315 32.9718H6.68711ZM8.73039 28.5138L9.13124 28.8665C10.4512 27.3665 12.3911 25.7553 14.9707 24.0356L14.6745 23.5913L14.3783 23.147C11.7568 24.8947 9.73394 26.5651 8.32954 28.161L8.73039 28.5138ZM14.6745 23.5913L14.9838 24.0266L18.5131 21.5189L18.2038 21.0836L17.8945 20.6484L14.3652 23.156L14.6745 23.5913ZM18.2038 21.0836L18.226 20.5501L13.768 20.3644L13.7457 20.8979L13.7235 21.4314L18.1816 21.6171L18.2038 21.0836ZM13.7457 20.8979L13.7689 20.3644C9.50606 20.1791 6.40362 19.7784 4.42717 19.1795L4.27232 19.6905L4.11747 20.2015C6.22759 20.8409 9.44075 21.2452 13.7225 21.4313L13.7457 20.8979ZM4.27232 19.6905L4.43159 19.1808C3.51468 18.8943 2.87583 18.473 2.46421 17.9456C2.05547 17.4219 1.83423 16.7469 1.83423 15.8826H1.30027H0.766311C0.766311 16.9376 1.04042 17.857 1.62235 18.6027C2.20142 19.3446 3.04859 19.8675 4.11305 20.2001L4.27232 19.6905ZM1.30027 15.8826H1.83423C1.83423 14.5725 2.22797 13.6545 2.94804 13.0373L2.60054 12.6319L2.25305 12.2265C1.23942 13.0953 0.766311 14.3444 0.766311 15.8826H1.30027ZM2.60054 12.6319L2.9341 13.0488C3.78788 12.3658 4.63329 12.0513 5.47971 12.0513V11.5174V10.9834C4.34477 10.9834 3.27074 11.4119 2.26698 12.2149L2.60054 12.6319ZM5.47971 11.5174V12.0513C6.57449 12.0513 7.91498 12.4183 9.51687 13.2041C11.1143 13.9878 12.9404 15.1724 14.9972 16.7688L15.3246 16.3469L15.652 15.9251C13.5604 14.3018 11.6714 13.0716 9.9872 12.2454C8.30745 11.4213 6.79973 10.9834 5.47971 10.9834V11.5174ZM15.3246 16.3469L15.006 16.7754L18.6282 19.4688L18.9468 19.0404L19.2654 18.6119L15.6432 15.9185L15.3246 16.3469ZM18.9468 19.0404L19.4594 18.8908L18.1591 14.4328L17.6465 14.5823L17.1339 14.7318L18.4342 19.1899L18.9468 19.0404ZM17.6465 14.5823L18.1562 14.423C17.541 12.4544 17.082 10.7085 16.777 9.1836L16.2534 9.28832L15.7298 9.39304C16.044 10.9641 16.5137 12.7475 17.1369 14.7416L17.6465 14.5823ZM16.2534 9.28832L16.7777 9.18748C16.4694 7.58413 16.323 6.41795 16.323 5.66614H15.789H15.255C15.255 6.52419 15.4182 7.7728 15.729 9.38916L16.2534 9.28832ZM15.789 5.66614H16.323C16.323 4.40561 16.6643 3.42221 17.3089 2.67008L16.9035 2.32259L16.4981 1.97508C15.6568 2.95665 15.255 4.20229 15.255 5.66614H15.789ZM16.9035 2.32259L17.3089 2.67008C17.9308 1.9446 18.8219 1.55627 20.0613 1.55627V1.02231V0.48835C18.5764 0.48835 17.3623 0.966873 16.4981 1.97509L16.9035 2.32259Z" fill="black" mask="url(#path-1-outside-1_4587_3595)"/>
</g>
<defs>
<clipPath id="clip0_4587_3595">
<rect width="40.3478" height="40" fill="white"/>
</clipPath>
</defs>
</svg>
