<svg width="39" height="42" viewBox="0 0 39 42" fill="none" xmlns="http://www.w3.org/2000/svg">
<path d="M34.5096 32.2138C31.884 36.4443 27.9681 39.3398 23.0991 40.4891C18.4659 41.5827 13.2503 40.9362 9.18278 38.3953C5.22741 35.8925 2.41405 31.9355 1.3492 27.3775C0.753256 24.7728 0.816486 22.1301 2.29155 19.7972C3.13034 18.4642 4.36526 17.4272 5.82318 16.8315C3.42116 14.3744 3.25771 10.2188 5.95971 7.82363C8.85825 5.25425 12.8682 4.07233 16.6829 3.72869C17.2774 3.70578 17.8937 3.71098 18.4868 3.72071C23.5756 3.80402 28.6103 5.8188 32.1196 9.55133C37.1174 14.8671 38.5347 23.5821 35.5506 30.2276L35.4632 30.4259C35.2959 30.8536 34.8657 31.6154 34.629 32.0214L34.5096 32.2138Z" fill="#1C1C1C"/>
<path d="M35.4673 30.4259C35.3585 30.3356 35.3421 30.3218 35.3331 30.1599C35.325 30.0129 35.2781 29.7545 35.3635 29.6328L35.404 29.6348C35.4476 29.8841 35.2624 29.965 35.5547 30.2276L35.4673 30.4259Z" fill="#0B0B0B"/>
<path d="M34.5095 32.214C34.4298 32.0924 34.4357 32.0816 34.4248 31.9397L34.4209 31.894C34.4204 31.8848 34.4198 31.8756 34.4192 31.8664L34.488 31.8729L34.6289 32.0216L34.5095 32.214Z" fill="#0B0B0B"/>
<path d="M34.494 31.8728L34.4253 31.8664C34.4197 31.7662 34.3964 31.481 34.4816 31.4261C34.5275 31.5737 34.5005 31.7101 34.494 31.8728Z" fill="#0B0B0B"/>
<path d="M19.3791 39.0115C19.1147 39.0387 18.5773 39.0295 18.3078 39.0238C16.5029 38.9919 14.7151 38.668 13.0136 38.0649C9.21252 36.6574 6.11688 33.8123 4.39439 30.1432C3.25511 27.7152 2.44894 24.5883 3.40147 21.9863C3.94798 20.4591 5.12171 19.2386 6.6264 18.6328C8.48837 17.8804 10.4872 18.066 12.45 18.0404C12.7897 18.036 13.1317 18.0403 13.4718 18.0403L21.5727 18.0411C22.3894 18.0411 23.1962 18.0565 24.0146 18.0146C24.7512 17.9768 25.3221 17.4685 24.9262 16.7183C24.3711 15.6667 23.1744 14.9331 22.0495 14.5849C19.3917 13.7622 16.3503 13.9045 13.7667 14.9356C13.0877 15.2102 12.2695 15.6953 11.6011 16.0298C10.6325 16.515 9.51046 16.5941 8.48345 16.2495C7.44512 15.8958 6.63641 15.14 6.1589 14.1598C5.93991 13.6918 5.81119 13.1867 5.77946 12.6709C5.72002 11.6228 6.07599 10.5935 6.77017 9.80597C7.56977 8.91288 8.40495 8.36184 9.44475 7.79933C11.7799 6.54529 14.3682 5.83522 17.0164 5.72222C26.823 5.23735 34.5364 11.7727 35.1069 21.6731C35.6489 31.0772 28.7358 38.5722 19.3791 39.0115Z" fill="white"/>
<path d="M19.2396 30.726C17.2864 30.806 15.5728 30.4618 14.0017 29.1887C13.2992 28.5699 12.5021 27.68 12.3489 26.7249C12.2771 26.278 12.676 25.9117 13.0936 25.8681C13.6623 25.8087 14.2617 25.8284 14.84 25.8278L18.1626 25.8259L22.1976 25.8268C22.7418 25.8267 23.8045 25.7726 24.3078 25.8586C25.8959 26.1299 24.7094 27.8668 24.1138 28.5396C22.8708 29.9437 21.079 30.6176 19.2396 30.726Z" fill="#1C1C1C"/>
<path d="M19.3411 29.0583C19.187 29.0833 18.6989 29.0828 18.5263 29.0805C17.0693 29.0611 15.734 28.5449 14.7165 27.4883L18.0451 27.4861L22.7187 27.488C21.8762 28.4729 20.5903 28.9117 19.3411 29.0583Z" fill="#1C1C1C"/>
<path d="M21.4883 30.1317C21.3369 30.1506 21.0338 30.1543 20.8853 30.132L20.8767 30.0844C20.998 30.0767 21.1195 30.0721 21.2411 30.0707C21.3568 30.0701 21.4181 30.0632 21.4883 30.1317Z" fill="#0B0B0B"/>
<path d="M17.1914 29.089C17.0634 29.098 16.865 29.12 16.7471 29.0895L16.7464 29.0528C16.8991 29.0324 17.0792 28.98 17.1914 29.089Z" fill="#0B0B0B"/>
<path d="M21.8984 16.3607C21.6782 16.3773 21.301 16.3626 21.0724 16.3609L19.5441 16.3554L14.8249 16.3606C14.9637 16.3058 15.103 16.2525 15.2428 16.2007C17.2289 15.5548 19.9812 15.4909 21.8984 16.3607Z" fill="#1C1C1C"/>
<path d="M5.52269 13.3545L5.49498 13.3289C5.44029 13.0717 5.47309 11.8023 5.48989 11.5012C5.60521 11.6757 5.53372 13.1052 5.52269 13.3545Z" fill="#0B0B0B"/>
<path d="M22.2031 39.064C21.8736 39.0914 21.467 39.0911 21.1386 39.0715L21.1272 39.0545C21.274 38.9965 22.0465 38.9939 22.2031 39.064Z" fill="#0B0B0B"/>
<path d="M7.03516 18.4033C6.82154 18.3846 6.60465 18.3929 6.39618 18.3618L6.37231 18.3108C6.55318 18.3052 6.7664 18.2946 6.94427 18.3267C7.01485 18.3394 6.99104 18.3336 7.03516 18.4033Z" fill="#0B0B0B"/>
<path d="M21.6797 14.6325C21.4306 14.6563 21.0983 14.665 20.8499 14.6418L20.8221 14.6052C21.2277 14.5737 21.2787 14.5642 21.6797 14.6325Z" fill="#0B0B0B"/>
<path d="M4.50685 14.123C4.36569 14.0152 4.42343 13.8496 4.4525 13.6954C4.46805 13.693 4.45544 13.6933 4.50419 13.7035C4.53247 13.8358 4.51443 13.9854 4.50685 14.123Z" fill="#0B0B0B"/>
<path d="M1.79473 21.8706C1.72381 21.7976 1.72969 21.4265 1.72144 21.2906C1.8604 21.3455 1.80056 21.7333 1.79473 21.8706Z" fill="#0B0B0B"/>
<path d="M30.3974 36.5585C30.3348 36.5431 30.3635 36.557 30.3178 36.5033L30.3245 36.4714C30.3878 36.3902 30.4222 36.3907 30.5216 36.3624C30.5391 36.3769 30.5657 36.4087 30.582 36.4268C30.5477 36.5056 30.4964 36.5071 30.3974 36.5585Z" fill="#0B0B0B"/>
<path d="M24.5152 17.6509C24.4604 17.569 24.4743 17.6132 24.4743 17.5128C24.5272 17.4353 24.5733 17.4306 24.6628 17.3991L24.6875 17.448C24.5859 17.5336 24.5783 17.537 24.5152 17.6509Z" fill="#0B0B0B"/>
<path d="M11.1254 39.2124C11.0845 39.2044 11.0732 39.1953 11.0345 39.1776C11.0837 39.128 11.1538 39.1293 11.237 39.1111C11.2994 39.1237 11.2952 39.1228 11.3477 39.1594C11.2711 39.2132 11.229 39.2018 11.1254 39.2124Z" fill="#0B0B0B"/>
<path d="M11.6367 6.60312C11.4789 6.63281 11.3929 6.65063 11.2527 6.57394C11.4242 6.53786 11.4788 6.53305 11.6367 6.60312Z" fill="#0B0B0B"/>
<g clip-path="url(#clip0_4587_3535)">
<mask id="path-21-outside-1_4587_3535" maskUnits="userSpaceOnUse" x="24.5938" y="0.947266" width="14" height="14" fill="black">
<rect fill="white" x="24.5938" y="0.947266" width="14" height="14"/>
<path d="M31.4639 1.47411C31.9516 1.47411 32.3227 1.62254 32.5772 1.9194C32.8316 2.21626 32.9588 2.59793 32.9588 3.06443C32.9588 3.4037 32.8952 3.83839 32.768 4.36849C32.662 4.8774 32.503 5.46051 32.2909 6.11785L31.8456 7.64456L33.0861 6.72217C33.8918 6.10724 34.5704 5.68316 35.1217 5.44991C35.673 5.19546 36.1183 5.06824 36.4576 5.06824C36.818 5.06824 37.1467 5.20606 37.4436 5.48172C37.7404 5.73617 37.8888 6.10725 37.8888 6.59494C37.8888 7.25228 37.5178 7.68697 36.7756 7.89901C36.0547 8.08985 35.0051 8.21707 33.6268 8.28069L32.0683 8.3443L33.3087 9.20307C34.3053 9.86041 35.0051 10.4435 35.4079 10.9524C35.8108 11.4613 36.0123 11.9596 36.0123 12.4473C36.0123 12.7866 35.8744 13.1047 35.5988 13.4015C35.3231 13.6984 34.9839 13.8468 34.581 13.8468C33.9661 13.8468 33.4784 13.5288 33.1179 12.8926C32.7574 12.2565 32.3757 11.3765 31.9728 10.2527L31.4639 8.8214L30.9232 10.2527C30.5204 11.5037 30.1175 12.4155 29.7146 12.988C29.3329 13.5394 28.8664 13.815 28.3151 13.815C27.9122 13.815 27.573 13.6666 27.2973 13.3697C27.0216 13.0729 26.8838 12.7548 26.8838 12.4155C26.8838 11.9066 27.1171 11.3977 27.5836 10.8888C28.0501 10.3587 28.7286 9.79679 29.6192 9.20307L30.8278 8.3443L29.3011 8.28069C27.838 8.21707 26.7566 8.07925 26.0568 7.8672C25.3783 7.65516 25.039 7.22047 25.039 6.56314C25.039 6.07544 25.1875 5.70436 25.4843 5.44991C25.8024 5.19546 26.1311 5.06824 26.4703 5.06824C27.2973 5.06824 28.4211 5.61955 29.8418 6.72217L31.0823 7.64456L30.637 6.11785C30.4249 5.43931 30.2659 4.83499 30.1599 4.30488C30.0539 3.75357 30.0008 3.34008 30.0008 3.06443C30.0008 2.59793 30.1281 2.21626 30.3825 1.9194C30.637 1.62254 30.9974 1.47411 31.4639 1.47411Z"/>
</mask>
<path d="M31.4639 1.47411C31.9516 1.47411 32.3227 1.62254 32.5772 1.9194C32.8316 2.21626 32.9588 2.59793 32.9588 3.06443C32.9588 3.4037 32.8952 3.83839 32.768 4.36849C32.662 4.8774 32.503 5.46051 32.2909 6.11785L31.8456 7.64456L33.0861 6.72217C33.8918 6.10724 34.5704 5.68316 35.1217 5.44991C35.673 5.19546 36.1183 5.06824 36.4576 5.06824C36.818 5.06824 37.1467 5.20606 37.4436 5.48172C37.7404 5.73617 37.8888 6.10725 37.8888 6.59494C37.8888 7.25228 37.5178 7.68697 36.7756 7.89901C36.0547 8.08985 35.0051 8.21707 33.6268 8.28069L32.0683 8.3443L33.3087 9.20307C34.3053 9.86041 35.0051 10.4435 35.4079 10.9524C35.8108 11.4613 36.0123 11.9596 36.0123 12.4473C36.0123 12.7866 35.8744 13.1047 35.5988 13.4015C35.3231 13.6984 34.9839 13.8468 34.581 13.8468C33.9661 13.8468 33.4784 13.5288 33.1179 12.8926C32.7574 12.2565 32.3757 11.3765 31.9728 10.2527L31.4639 8.8214L30.9232 10.2527C30.5204 11.5037 30.1175 12.4155 29.7146 12.988C29.3329 13.5394 28.8664 13.815 28.3151 13.815C27.9122 13.815 27.573 13.6666 27.2973 13.3697C27.0216 13.0729 26.8838 12.7548 26.8838 12.4155C26.8838 11.9066 27.1171 11.3977 27.5836 10.8888C28.0501 10.3587 28.7286 9.79679 29.6192 9.20307L30.8278 8.3443L29.3011 8.28069C27.838 8.21707 26.7566 8.07925 26.0568 7.8672C25.3783 7.65516 25.039 7.22047 25.039 6.56314C25.039 6.07544 25.1875 5.70436 25.4843 5.44991C25.8024 5.19546 26.1311 5.06824 26.4703 5.06824C27.2973 5.06824 28.4211 5.61955 29.8418 6.72217L31.0823 7.64456L30.637 6.11785C30.4249 5.43931 30.2659 4.83499 30.1599 4.30488C30.0539 3.75357 30.0008 3.34008 30.0008 3.06443C30.0008 2.59793 30.1281 2.21626 30.3825 1.9194C30.637 1.62254 30.9974 1.47411 31.4639 1.47411Z" fill="#FF55A7"/>
<path d="M32.5772 1.9194L32.716 1.80039V1.80039L32.5772 1.9194ZM32.768 4.36849L32.5901 4.3258L32.589 4.3312L32.768 4.36849ZM32.2909 6.11785L32.1168 6.06169L32.1154 6.06665L32.2909 6.11785ZM31.8456 7.64456L31.6701 7.59336L31.5175 8.1164L31.9547 7.79129L31.8456 7.64456ZM33.0861 6.72217L33.1952 6.86892L33.197 6.86753L33.0861 6.72217ZM35.1217 5.44991L35.193 5.61841L35.1983 5.61594L35.1217 5.44991ZM37.4436 5.48172L37.319 5.61582L37.3246 5.62056L37.4436 5.48172ZM36.7756 7.89901L36.8224 8.07581L36.8259 8.07483L36.7756 7.89901ZM33.6268 8.28069L33.6342 8.4634L33.6352 8.46335L33.6268 8.28069ZM32.0683 8.3443L32.0608 8.16159L31.5153 8.18386L31.9642 8.49465L32.0683 8.3443ZM33.3087 9.20307L33.2046 9.35346L33.208 9.35572L33.3087 9.20307ZM35.4079 10.9524L35.2646 11.0659V11.0659L35.4079 10.9524ZM33.1179 12.8926L32.9588 12.9828V12.9828L33.1179 12.8926ZM31.9728 10.2527L31.8006 10.3139L31.8007 10.3144L31.9728 10.2527ZM31.4639 8.8214L31.6362 8.76014L31.4691 8.29019L31.2929 8.75677L31.4639 8.8214ZM30.9232 10.2527L30.752 10.188L30.7492 10.1966L30.9232 10.2527ZM29.7146 12.988L29.565 12.8828L29.5642 12.884L29.7146 12.988ZM27.2973 13.3697L27.1633 13.4941V13.4941L27.2973 13.3697ZM27.5836 10.8888L27.7184 11.0124L27.7208 11.0096L27.5836 10.8888ZM29.6192 9.20307L29.7206 9.35529L29.7251 9.35214L29.6192 9.20307ZM30.8278 8.3443L30.9337 8.49336L31.3693 8.18385L30.8354 8.1616L30.8278 8.3443ZM29.3011 8.28069L29.2932 8.46337L29.2935 8.46339L29.3011 8.28069ZM26.0568 7.8672L26.0023 8.04175L26.0038 8.0422L26.0568 7.8672ZM25.4843 5.44991L25.37 5.30704L25.3653 5.31108L25.4843 5.44991ZM29.8418 6.72217L29.7297 6.86666L29.7327 6.86891L29.8418 6.72217ZM31.0823 7.64456L30.9732 7.79129L31.4104 8.1164L31.2578 7.59336L31.0823 7.64456ZM30.637 6.11785L30.8126 6.06664L30.8115 6.0633L30.637 6.11785ZM30.1599 4.30488L29.9803 4.33941L29.9806 4.34074L30.1599 4.30488ZM30.3825 1.9194L30.5214 2.0384V2.0384L30.3825 1.9194ZM31.4639 1.47411V1.65697C31.9126 1.65697 32.227 1.79181 32.4383 2.0384L32.5772 1.9194L32.716 1.80039C32.4185 1.45327 31.9907 1.29125 31.4639 1.29125V1.47411ZM32.5772 1.9194L32.4383 2.0384C32.6591 2.29597 32.776 2.63275 32.776 3.06443H32.9588H33.1417C33.1417 2.56312 33.0041 2.13654 32.716 1.80039L32.5772 1.9194ZM32.9588 3.06443H32.776C32.776 3.38335 32.7158 3.80235 32.5902 4.32582L32.768 4.36849L32.9458 4.41117C33.0746 3.87442 33.1417 3.42404 33.1417 3.06443H32.9588ZM32.768 4.36849L32.589 4.3312C32.4846 4.83206 32.3275 5.40869 32.1169 6.06171L32.2909 6.11785L32.4649 6.17399C32.6784 5.51234 32.8393 4.92273 32.947 4.40579L32.768 4.36849ZM32.2909 6.11785L32.1154 6.06665L31.6701 7.59336L31.8456 7.64456L32.0212 7.69576L32.4665 6.16905L32.2909 6.11785ZM31.8456 7.64456L31.9547 7.79129L33.1952 6.86891L33.0861 6.72217L32.977 6.57543L31.7365 7.49782L31.8456 7.64456ZM33.0861 6.72217L33.197 6.86753C33.9977 6.25645 34.6622 5.84287 35.1929 5.61832L35.1217 5.44991L35.0504 5.2815C34.4786 5.52345 33.7859 5.95804 32.9751 6.57681L33.0861 6.72217ZM35.1217 5.44991L35.1983 5.61594C35.7417 5.36517 36.158 5.25109 36.4576 5.25109V5.06824V4.88538C36.0785 4.88538 35.6043 5.02575 35.0451 5.28388L35.1217 5.44991ZM36.4576 5.06824V5.25109C36.7661 5.25109 37.0516 5.36727 37.3191 5.61572L37.4436 5.48172L37.568 5.34772C37.2418 5.04486 36.87 4.88538 36.4576 4.88538V5.06824ZM37.4436 5.48172L37.3246 5.62056C37.5711 5.83192 37.706 6.14631 37.706 6.59494H37.8888H38.0717C38.0717 6.06818 37.9097 5.64042 37.5626 5.34288L37.4436 5.48172ZM37.8888 6.59494H37.706C37.706 6.88701 37.6246 7.11591 37.4715 7.29524C37.3162 7.47717 37.0737 7.62367 36.7254 7.72318L36.7756 7.89901L36.8259 8.07483C37.2197 7.96231 37.5338 7.78544 37.7496 7.53268C37.9676 7.27733 38.0717 6.96021 38.0717 6.59494H37.8888ZM36.7756 7.89901L36.7288 7.72224C36.0268 7.90806 34.9926 8.03459 33.6184 8.09802L33.6268 8.28069L33.6352 8.46335C35.0175 8.39955 36.0825 8.27164 36.8224 8.07578L36.7756 7.89901ZM33.6268 8.28069L33.6193 8.09798L32.0608 8.16159L32.0683 8.3443L32.0757 8.52701L33.6342 8.46339L33.6268 8.28069ZM32.0683 8.3443L31.9642 8.49465L33.2046 9.35342L33.3087 9.20307L33.4128 9.05273L32.1724 8.19395L32.0683 8.3443ZM33.3087 9.20307L33.208 9.35572C34.1996 10.0097 34.8799 10.5801 35.2646 11.0659L35.4079 10.9524L35.5513 10.8389C35.1302 10.307 34.411 9.71107 33.4094 9.05043L33.3087 9.20307ZM35.4079 10.9524L35.2646 11.0659C35.6503 11.5532 35.8294 12.0127 35.8294 12.4473H36.0123H36.1951C36.1951 11.9066 35.9713 11.3694 35.5513 10.8389L35.4079 10.9524ZM36.0123 12.4473H35.8294C35.8294 12.7318 35.7155 13.0071 35.4648 13.2771L35.5988 13.4015L35.7328 13.526C36.0334 13.2022 36.1951 12.8414 36.1951 12.4473H36.0123ZM35.5988 13.4015L35.4648 13.2771C35.2235 13.5369 34.9327 13.664 34.581 13.664V13.8468V14.0297C35.035 14.0297 35.4227 13.8598 35.7328 13.526L35.5988 13.4015ZM34.581 13.8468V13.664C34.0455 13.664 33.6123 13.3942 33.277 12.8025L33.1179 12.8926L32.9588 12.9828C33.3444 13.6633 33.8866 14.0297 34.581 14.0297V13.8468ZM33.1179 12.8926L33.277 12.8025C32.9238 12.1793 32.5462 11.3103 32.145 10.191L31.9728 10.2527L31.8007 10.3144C32.2052 11.4427 32.591 12.3337 32.9588 12.9828L33.1179 12.8926ZM31.9728 10.2527L32.1451 10.1914L31.6362 8.76014L31.4639 8.8214L31.2916 8.88266L31.8006 10.3139L31.9728 10.2527ZM31.4639 8.8214L31.2929 8.75677L30.7522 10.1881L30.9232 10.2527L31.0943 10.3173L31.635 8.88602L31.4639 8.8214ZM30.9232 10.2527L30.7492 10.1966C30.3479 11.4427 29.9518 12.3333 29.565 12.8828L29.7146 12.988L29.8641 13.0933C30.2832 12.4978 30.6928 11.5648 31.0973 10.3087L30.9232 10.2527ZM29.7146 12.988L29.5642 12.884C29.2083 13.3981 28.793 13.6321 28.3151 13.6321V13.815V13.9979C28.9398 13.9979 29.4575 13.6807 29.8649 13.0921L29.7146 12.988ZM28.3151 13.815V13.6321C27.9634 13.6321 27.6726 13.5051 27.4313 13.2453L27.2973 13.3697L27.1633 13.4941C27.4733 13.828 27.8611 13.9979 28.3151 13.9979V13.815ZM27.2973 13.3697L27.4313 13.2453C27.1806 12.9753 27.0667 12.6999 27.0667 12.4155H26.8838H26.701C26.701 12.8096 26.8627 13.1704 27.1633 13.4941L27.2973 13.3697ZM26.8838 12.4155H27.0667C27.0667 11.9666 27.2716 11.4997 27.7184 11.0124L27.5836 10.8888L27.4488 10.7653C26.9625 11.2957 26.701 11.8467 26.701 12.4155H26.8838ZM27.5836 10.8888L27.7208 11.0096C28.1729 10.4959 28.8372 9.94415 29.7206 9.35522L29.6192 9.20307L29.5177 9.05092C28.62 9.64944 27.9272 10.2215 27.4463 10.768L27.5836 10.8888ZM29.6192 9.20307L29.7251 9.35214L30.9337 8.49336L30.8278 8.3443L30.7219 8.19524L29.5133 9.05401L29.6192 9.20307ZM30.8278 8.3443L30.8354 8.1616L29.3087 8.09798L29.3011 8.28069L29.2935 8.46339L30.8202 8.527L30.8278 8.3443ZM29.3011 8.28069L29.309 8.098C27.8492 8.03453 26.7867 7.89731 26.1099 7.6922L26.0568 7.8672L26.0038 8.0422C26.7264 8.26118 27.8268 8.39962 29.2932 8.46337L29.3011 8.28069ZM26.0568 7.8672L26.1114 7.69267C25.7974 7.59454 25.5786 7.45025 25.4376 7.26965C25.2977 7.0903 25.2219 6.85915 25.2219 6.56314H25.039H24.8562C24.8562 6.92446 24.9501 7.23932 25.1493 7.49466C25.3476 7.74874 25.6378 7.92782 26.0023 8.04174L26.0568 7.8672ZM25.039 6.56314H25.2219C25.2219 6.11451 25.3567 5.80012 25.6033 5.58875L25.4843 5.44991L25.3653 5.31108C25.0182 5.60861 24.8562 6.03637 24.8562 6.56314H25.039ZM25.4843 5.44991L25.5986 5.5927C25.8909 5.3588 26.1805 5.25109 26.4703 5.25109V5.06824V4.88538C26.0817 4.88538 25.7138 5.03213 25.3701 5.30712L25.4843 5.44991ZM26.4703 5.06824V5.25109C26.8452 5.25109 27.3043 5.37677 27.8529 5.64589C28.4 5.91426 29.0253 6.31994 29.7297 6.86663L29.8418 6.72217L29.9539 6.57771C29.2376 6.02178 28.5907 5.60049 28.014 5.31755C27.4387 5.03535 26.9224 4.88538 26.4703 4.88538V5.06824ZM29.8418 6.72217L29.7327 6.86891L30.9732 7.79129L31.0823 7.64456L31.1914 7.49782L29.9509 6.57543L29.8418 6.72217ZM31.0823 7.64456L31.2578 7.59336L30.8125 6.06665L30.637 6.11785L30.4614 6.16905L30.9067 7.69576L31.0823 7.64456ZM30.637 6.11785L30.8115 6.0633C30.6008 5.38912 30.4436 4.79122 30.3392 4.26902L30.1599 4.30488L29.9806 4.34074C30.0882 4.87876 30.249 5.4895 30.4624 6.17239L30.637 6.11785ZM30.1599 4.30488L30.3394 4.27035C30.2339 3.72126 30.1837 3.32189 30.1837 3.06443H30.0008H29.818C29.818 3.35828 29.8739 3.78587 29.9803 4.33941L30.1599 4.30488ZM30.0008 3.06443H30.1837C30.1837 2.63275 30.3006 2.29597 30.5214 2.0384L30.3825 1.9194L30.2437 1.80039C29.9556 2.13654 29.818 2.56312 29.818 3.06443H30.0008ZM30.3825 1.9194L30.5214 2.0384C30.7343 1.78995 31.0395 1.65697 31.4639 1.65697V1.47411V1.29125C30.9554 1.29125 30.5396 1.45512 30.2437 1.80039L30.3825 1.9194Z" fill="black" mask="url(#path-21-outside-1_4587_3535)"/>
</g>
<defs>
<clipPath id="clip0_4587_3535">
<rect width="13.8175" height="13.6984" fill="white" transform="translate(24.5938 1)"/>
</clipPath>
</defs>
</svg>
