<svg width="20" height="20" viewBox="0 0 20 20" fill="none" xmlns="http://www.w3.org/2000/svg">
<path d="M9.99893 6.25003C9.25725 6.25003 8.53222 6.46996 7.91554 6.88202C7.29885 7.29407 6.81821 7.87974 6.53438 8.56496C6.25055 9.25019 6.17629 10.0042 6.32098 10.7316C6.46568 11.459 6.82283 12.1272 7.34728 12.6517C7.87172 13.1761 8.53991 13.5333 9.26734 13.678C9.99477 13.8227 10.7488 13.7484 11.434 13.4646C12.1192 13.1807 12.7049 12.7001 13.1169 12.0834C13.529 11.4667 13.7489 10.7417 13.7489 10C13.7479 9.00578 13.3525 8.05256 12.6494 7.34952C11.9464 6.64648 10.9932 6.25106 9.99893 6.25003ZM9.99893 12.5C9.50447 12.5 9.02113 12.3534 8.61 12.0787C8.19888 11.804 7.87845 11.4135 7.68923 10.9567C7.50001 10.4999 7.4505 9.99725 7.54696 9.5123C7.64343 9.02735 7.88153 8.58189 8.23116 8.23226C8.58079 7.88263 9.02625 7.64453 9.5112 7.54806C9.99615 7.4516 10.4988 7.50111 10.9556 7.69033C11.4125 7.87955 11.8029 8.19998 12.0776 8.6111C12.3523 9.02222 12.4989 9.50557 12.4989 10C12.4989 10.6631 12.2355 11.299 11.7667 11.7678C11.2979 12.2366 10.662 12.5 9.99893 12.5ZM18.588 8.37581C18.5706 8.2878 18.5344 8.20456 18.482 8.13177C18.4296 8.05897 18.3621 7.99832 18.2841 7.95393L15.9536 6.62581L15.9442 3.99924C15.944 3.90879 15.924 3.81947 15.8859 3.73746C15.8477 3.65545 15.7922 3.5827 15.7231 3.52424C14.8778 2.80916 13.9043 2.26117 12.8544 1.9094C12.7717 1.88142 12.6841 1.87106 12.5972 1.879C12.5102 1.88694 12.426 1.913 12.3497 1.95549L9.99893 3.26956L7.6458 1.95315C7.56952 1.91041 7.48511 1.88416 7.39804 1.87608C7.31097 1.86801 7.22318 1.87829 7.14033 1.90628C6.09123 2.26062 5.11884 2.8107 4.27471 3.52737C4.20578 3.58574 4.15032 3.65836 4.11215 3.74023C4.07398 3.8221 4.05401 3.91126 4.05362 4.00159L4.0419 6.63049L1.71143 7.95862C1.63346 8.00301 1.56596 8.06366 1.51352 8.13646C1.46108 8.20925 1.42493 8.29248 1.40752 8.38049C1.19424 9.45228 1.19424 10.5556 1.40752 11.6274C1.42493 11.7154 1.46108 11.7986 1.51352 11.8714C1.56596 11.9442 1.63346 12.0049 1.71143 12.0492L4.0419 13.3774L4.05127 16.0039C4.05155 16.0944 4.07147 16.1837 4.10964 16.2657C4.14781 16.3477 4.20333 16.4205 4.27237 16.4789C5.11773 17.194 6.09124 17.742 7.14112 18.0938C7.22379 18.1218 7.31142 18.1321 7.39834 18.1242C7.48526 18.1162 7.56956 18.0902 7.6458 18.0477L9.99893 16.7305L12.3521 18.0469C12.4452 18.0988 12.5501 18.1257 12.6567 18.125C12.725 18.125 12.7928 18.1139 12.8575 18.0922C13.9065 17.7383 14.8789 17.1888 15.7231 16.4727C15.7921 16.4143 15.8475 16.3417 15.8857 16.2598C15.9239 16.178 15.9438 16.0888 15.9442 15.9985L15.956 13.3696L18.2864 12.0414C18.3644 11.997 18.4319 11.9364 18.4843 11.8636C18.5368 11.7908 18.5729 11.7076 18.5903 11.6196C18.8024 10.5486 18.8016 9.44643 18.588 8.37581ZM17.4161 11.1032L15.1841 12.3727C15.0863 12.4283 15.0053 12.5093 14.9497 12.6071C14.9044 12.6852 14.8567 12.768 14.8083 12.8461C14.7463 12.9446 14.7133 13.0586 14.713 13.175L14.7013 15.6946C14.1013 16.1657 13.4329 16.5424 12.7192 16.8117L10.4677 15.5571C10.3742 15.5053 10.269 15.4784 10.1622 15.4789H10.1474C10.0528 15.4789 9.95752 15.4789 9.86299 15.4789C9.75118 15.4761 9.64064 15.5031 9.54268 15.5571L7.28955 16.8149C6.57433 16.5476 5.9041 16.1727 5.30205 15.7032L5.29346 13.1875C5.29307 13.0709 5.26006 12.9567 5.19815 12.8578C5.14971 12.7797 5.10205 12.7016 5.05752 12.6188C5.00231 12.5195 4.92134 12.4369 4.82315 12.3797L2.58877 11.1071C2.47315 10.3757 2.47315 9.63064 2.58877 8.89925L4.8169 7.62737C4.91469 7.57176 4.99566 7.49079 5.05127 7.39299C5.09658 7.31487 5.14424 7.23206 5.19268 7.15393C5.25468 7.05541 5.28771 6.94143 5.28799 6.82503L5.29971 4.30549C5.89965 3.83436 6.56804 3.45762 7.28174 3.18831L9.53018 4.44299C9.62803 4.49724 9.73865 4.52422 9.85049 4.52112C9.94502 4.52112 10.0403 4.52112 10.1349 4.52112C10.2467 4.52391 10.3572 4.49695 10.4552 4.44299L12.7083 3.18518C13.4235 3.45243 14.0938 3.82732 14.6958 4.2969L14.7044 6.81253C14.7048 6.92916 14.7378 7.04336 14.7997 7.14221C14.8481 7.22034 14.8958 7.29846 14.9403 7.38128C14.9956 7.48058 15.0765 7.56317 15.1747 7.62034L17.4091 8.89299C17.5263 9.62495 17.5276 10.3708 17.413 11.1032H17.4161Z" fill="black"/>
</svg>
